<svg id="Calque_1" data-name="Calque 1" xmlns="http://www.w3.org/2000/svg" viewBox="0 0 1321.2 379.11"><defs><style>.cls-1{fill:#fff;stroke:#1d1d1b;stroke-miterlimit:10;}</style></defs><path class="cls-1" d="M1675.92,869.85a19.29,19.29,0,0,0,.41-2.58,17.68,17.68,0,0,0-2-9.82,2.17,2.17,0,0,0,0-.26A28.91,28.91,0,0,0,1673,849c-.09-.34-.21-.75-.3-1.07a17,17,0,0,0-4.31-11.95c-.32-.36-.65-.7-1-1a22.8,22.8,0,0,0-5-8.26c-4.16-6.48-8.84-8.61-15.13-10.92-.85-.31-1.84-.67-3-1.11a28.27,28.27,0,0,0-13.84-3.45c-1.08,0-2.18,0-3.3.16-6.17.15-12.49,1.58-18.1,2.85-2.62.59-5.09,1.15-7.17,1.5-.49.08-1,.18-1.46.3-43.38,11.23-86,33.86-121.76,64.45a16.9,16.9,0,0,0-1-9.06c0-.17,0-.34,0-.49a22.46,22.46,0,0,0-4-10.92c-8.51-19.3-29.58-41.29-80.71-46.48a229.39,229.39,0,0,0-25-1.34,330.25,330.25,0,0,0-74.75,8.8,26.53,26.53,0,0,0-8.71,2.54,19.89,19.89,0,0,0-8.29-4.43,18.92,18.92,0,0,0-12.08-4.15q-1,0-1.92.09c-5.77-1.73-11.76-1.73-15.8-1.73-2.17,0-4.4.05-6.58.1-1.83,0-3.62.08-5.28.08-.84,0-1.64,0-2.38,0l-1,0c-23.29.32-53.44,1.58-85.28,8.14a17,17,0,0,0-2.09-2,23.09,23.09,0,0,0-17.57-7.4h-1.24a20.47,20.47,0,0,0-10.54,2.91c-7.4,1.26-16.62,7.34-19.34,17.72-2.74.72-8.2,1.13-12,1.43-6.91.53-14.73,1.13-22.93,3.22a16.93,16.93,0,0,0-3.77,1.45,19.28,19.28,0,0,0-10,6.46,18,18,0,0,0-2.6,3.71,17.57,17.57,0,0,0-.84,1.89,18.5,18.5,0,0,0-7.54-1.65q-.52,0-1,0a23,23,0,0,0-8-1.49c-4.66,0-8.63,1.44-13.72,3.48-.53.22-1.05.45-1.56.72a294.48,294.48,0,0,0-36.84,23.4,64.29,64.29,0,0,0,.9-8.91,29.23,29.23,0,0,1,.38-4.16,17,17,0,0,0-6.67-18.27,17.19,17.19,0,0,0-4.29-2.18q-.33-.83-.66-1.5a17.51,17.51,0,0,0-6.25-7,18.18,18.18,0,0,0-2.61-4.12c-.28-.33-.58-.66-.88-1-.09-.22-.2-.45-.31-.68a18.76,18.76,0,0,0-10-9.37,16.86,16.86,0,0,0-7.26-4,16.58,16.58,0,0,0-2.08-.4A16.93,16.93,0,0,0,919,815a9.18,9.18,0,0,1-2.2,1.06,26.34,26.34,0,0,0-10.31,6.23c-9.7,7.37-14.07,19.2-17.94,29.69-1.9,5.15-3.87,10.48-5.94,13.64a16.9,16.9,0,0,0-1.26,2.28c-11.17,24.57-23.19,49.41-34.82,73.43-3.78,7.8-7.61,15.72-11.44,23.68,0,0,0-.07,0-.1.78-2,1.34-3.81,1.8-5.3a27.34,27.34,0,0,1,1-2.94,17.27,17.27,0,0,0,2.56-5.2,19.77,19.77,0,0,0,3.45-8.73,22.25,22.25,0,0,0,5.65-8.76,17.26,17.26,0,0,0,3.2-8.12q.16-.71.3-1.44a17,17,0,0,0,3.9-8.12,20.47,20.47,0,0,0,4.76-8.16,20.15,20.15,0,0,0,.86-5.67,19.69,19.69,0,0,0,2.46-8.19c.23-1.57.31-2.91.37-4a5.26,5.26,0,0,1,.36-2.17c2.38-3.32,6.24-9.59,4.25-17.37,1.09-5.36,1.11-11.09-2.44-16.26a26.48,26.48,0,0,0-4.5-10.37,19.09,19.09,0,0,0-1.53-2.43,17.8,17.8,0,0,0-5.35-4.75c-.21-.27-.42-.53-.64-.78a19.1,19.1,0,0,0-3.07-14.13,18.46,18.46,0,0,0-15.19-7.88c-.44,0-.88,0-1.32.05a19.76,19.76,0,0,0-8.08-1.71c-.37,0-.74,0-1.09,0a16.77,16.77,0,0,0-3.45-.36,17,17,0,0,0-10.79,3.87c-9.6,7.91-15.26,18.64-20.24,28.15-10.75,19.43-20.39,37.69-29.06,55.07a17.06,17.06,0,0,0,1.49-9.15,21.78,21.78,0,0,0,.9-6.12,20,20,0,0,0-1.69-8.22,18.05,18.05,0,0,0-.25-1.94,16.51,16.51,0,0,0-.51-3,39,39,0,0,0-1-15,30.41,30.41,0,0,0-3-10.5,18.15,18.15,0,0,0-4.29-6.79,17,17,0,0,0-7-4.23,62.4,62.4,0,0,0-14.44-9.84,17.22,17.22,0,0,0-7.57-4.89c-4.89-5.08-10.1-6.4-14.2-6.4h-.52a18,18,0,0,0-4.88-.77h-.45a19,19,0,0,0-7.45-1.54,17.11,17.11,0,0,0-4.88.72,32.28,32.28,0,0,0-4.57,1.77h-.16a18.35,18.35,0,0,0-2.3-.15c-8.43,0-14.18,4.71-17.15,14-5.57,7-9.52,14.81-13,22.11,0-.13-.08-.29-.12-.41-.09-.34-.21-.76-.29-1.08A17,17,0,0,0,651.64,836c-.33-.36-.66-.7-1-1a22.66,22.66,0,0,0-5-8.26c-4.15-6.48-8.84-8.61-15.13-10.92l-3-1.1a28.15,28.15,0,0,0-13.84-3.46c-1.08,0-2.19,0-3.31.16-6.16.15-12.48,1.58-18.09,2.85-2.62.59-5.09,1.15-7.17,1.5-.5.08-1,.18-1.47.3-49.24,12.75-97.49,40.18-135.91,77.29-22.09,21.55-35.8,43.6-40.77,65.56a54.54,54.54,0,0,0-2.52,15.24v.2c0,1.07,0,2.12,0,3.12.16,17.7,2.47,49.44,15.83,67.36,6.23,10.65,15.38,17.82,24.38,24,.38.26.76.51,1.16.73,2.85,1.63,5.14,2.77,7,3.67a46.47,46.47,0,0,1,5.64,3.14,13.8,13.8,0,0,0,1.43.85c2.74,1.47,5.53,2.79,8.24,4.06l3,1.43c-24.37,9.43-50.06,13.95-75,18.33-4.35.77-8.69,1.53-13,2.31a17,17,0,0,0-8.42,4.18,16.92,16.92,0,0,0-4.65,3.24c-5.38,2.22-10.46,6.19-12,13.65-1.25,6,.41,14.24,8.82,19.5l.3.18a19.71,19.71,0,0,0,11.25,7.22l.84.43c1.67,4.5,5.32,9.74,13.21,12.74a20.61,20.61,0,0,0,6.08,4.92,38.21,38.21,0,0,0,4,8.56l.41.64a16.93,16.93,0,0,0,2.45,2.92,19.91,19.91,0,0,0,14.28,5.43,38.62,38.62,0,0,0,7.87-.92c.6.06,1.21.09,1.82.09a18,18,0,0,0,8-2,26.14,26.14,0,0,0,4.8.48,19,19,0,0,0,8.25-1.83,15.82,15.82,0,0,0,2.06-.22l1.59-.27c.77-.13,1.44-.26,2-.33a17.77,17.77,0,0,0,3.63-.53,19.35,19.35,0,0,0,11.77-2.44,70.07,70.07,0,0,0,7.93-1.47,30.64,30.64,0,0,0,7.47-1.33c.78-.21,1.72-.46,2.92-.75a23.11,23.11,0,0,0,3.78-1.16c.53-.2,1.61-.62,2-.7a17,17,0,0,0,4.47-1.2,42.4,42.4,0,0,0,5-1.61,41,41,0,0,0,11.55-4.08,45.18,45.18,0,0,0,10.24-3.6c1.32-.59,2.56-1.15,3.46-1.46a17,17,0,0,0,3.67-1.77c1.48-1,3.09-1.93,4.75-2.93l.88-.54a94.47,94.47,0,0,0,10.2-6.62c.6-.43,1.2-.87,1.8-1.33a16.83,16.83,0,0,0,.46,3c-.06.73-.17,1.64-.24,2.27-.45,3.9-1,8.31.58,12.93a17,17,0,0,0,16.09,11.61,16.72,16.72,0,0,0,3.5-.37,14.36,14.36,0,0,1,1.94-.32c.24,0,.45,0,.67,0,.89.06,1.81.1,2.91.1a45,45,0,0,0,6.37-.48l.12.06a17,17,0,0,0,7.6,1.8h.41c.43,0,.85,0,1.26,0a16.87,16.87,0,0,0,5.34.86,16.1,16.1,0,0,0,2.19-.14,18.19,18.19,0,0,0,4.93-.18,20.74,20.74,0,0,0,11.29,3.23,19.54,19.54,0,0,0,9.33-2.27h0c3.43,0,9.62-1,14.73-7.58,4.59-4.62,6.7-10.16,6.15-16a21.8,21.8,0,0,0,3.67-13.18q0-.83-.15-1.65c.58-2.15,1-4.3,1.4-6.36.31-1.59.62-3.22.92-4.29.9-2.54,1.75-5.6,2.64-8.82s2-7.13,2.85-9.34l.58-1.55a125,125,0,0,0,6.94,19.73c4.17,12.31,15.39,18.8,25.52,21.32a29.25,29.25,0,0,0,4.75,4.32,17,17,0,0,0,10.65,7.11,17.22,17.22,0,0,0,3.41.34,16.94,16.94,0,0,0,11.3-4.32,17.73,17.73,0,0,0,10.67,5.18,16.67,16.67,0,0,0,12.49,5.28,17.18,17.18,0,0,0,5.33-.84,19.88,19.88,0,0,0,4.4,1.07,17.21,17.21,0,0,0,17-2.41,16.94,16.94,0,0,0,14,4.6,16.7,16.7,0,0,0,4.9-1.44l1-.16c.55.31,1.09.58,1.59.82a19,19,0,0,0,2.55,1.28l.18.3a17.69,17.69,0,0,0,13.09,8.15,18.07,18.07,0,0,0,4.36.53,18.6,18.6,0,0,0,5.14-.72,23.23,23.23,0,0,0,2.67.24,18,18,0,0,0,2.34,1.14,17,17,0,0,0,21.37,1.24,24.72,24.72,0,0,0,10.27-18,18.8,18.8,0,0,0,3.08-6.35,21.13,21.13,0,0,0,3.58-11.4c0-.12,0-.24,0-.36a17,17,0,0,0,3.54-7.81,22.54,22.54,0,0,0,4.83-14.19c.39-1,.92-2.22,1.29-3.09a72.92,72.92,0,0,0,2.76-7.06,22.79,22.79,0,0,0,4.19-11.29,43.67,43.67,0,0,0,3-5.92h.57a29.43,29.43,0,0,0,4.69-.4,25.9,25.9,0,0,0,7.05,1,34.19,34.19,0,0,0,6.87-.77c.48,0,1,0,1.45,0a23.93,23.93,0,0,0,3.72-.29,19.07,19.07,0,0,0,5.51.8,20,20,0,0,0,3.09-.24,17.17,17.17,0,0,0,8.68-.84c.72,0,1.48,0,1.84,0h1.32c1.56,0,3.35,0,5.14-.1.66.08,1.92.34,2.8.52,1.2.26,2.49.52,3.88.72a18.44,18.44,0,0,0,5.19.74h.3a22.06,22.06,0,0,0,7.33,1.22,33,33,0,0,0,7.28-.94c.28-.06.55-.13.84-.18a21.79,21.79,0,0,0,2.79.18,17.33,17.33,0,0,0,13.11-5.91c.56-.1,1.12-.22,1.67-.36-2.26,30.09,6.85,53.15,26.24,65.61a17.08,17.08,0,0,0,8.53,2.68c.4.29.81.57,1.24.83a20.53,20.53,0,0,0,9.19,3.21c.42.2.85.4,1.28.57a16.88,16.88,0,0,0,8.35,6.12,25,25,0,0,1,4.26,1.88,42.89,42.89,0,0,0,9.24,3.72,41.56,41.56,0,0,1,5.3,2.3c5,2.44,12,5.78,21.42,5.78h1c.67,0,1.35,0,2,0,15.2,0,29.13-4.92,34.41-7a17.18,17.18,0,0,0,1.74-.82l1.22-.66,2.84-1.51a26.63,26.63,0,0,0,11.67-4.27,16.8,16.8,0,0,0,6.34-2.41,17.77,17.77,0,0,0,1.79-1.3,22.25,22.25,0,0,0,9.12-5.22,75.18,75.18,0,0,0,9.84-6.23,45.69,45.69,0,0,1,6.92-4.4,18.66,18.66,0,0,0,2-1c4-2.22,13.5-7.51,14.46-17.16,4-1.42,8.89-4.72,11.74-12.33a17,17,0,0,0-3.27-17.3c-.38-.42-.78-.82-1.19-1.2a19.86,19.86,0,0,0-6.47-11.18,18.28,18.28,0,0,0-15.53-8,24.82,24.82,0,0,0-3.22.22,16.47,16.47,0,0,0-2.81-.8,17.16,17.16,0,0,0-3-.3h0a17.71,17.71,0,0,0-2.58-.4,18.47,18.47,0,0,0-5.94-1.31,17,17,0,0,0-1.63-.87,17.88,17.88,0,0,0-12.29-4.93h-.15a21.56,21.56,0,0,0-7.57-1.29,33.68,33.68,0,0,0-3.43.19,16.87,16.87,0,0,0-6.9,2.25l-2.72,1.6c-13.28,7.8-26.86,15.78-40.37,21.39a16.49,16.49,0,0,0,.21-2.15,25.32,25.32,0,0,0,1.79-10.6,17,17,0,0,0,.64-4.64c0-.8,0-1.91.06-2.62.22-.33.43-.68.63-1a27.44,27.44,0,0,0,3.61-12c1.22-2.92,2.24-6.17,3.23-9.33.09-.28.18-.59.29-.91a29.17,29.17,0,0,0,7.44-2.39,19.17,19.17,0,0,0,2.81-.73,17.11,17.11,0,0,0,7-2.5c.2-.13.41-.26.6-.4a25.71,25.71,0,0,0,2.89-.34c.47,0,1,0,1.43,0a17.85,17.85,0,0,0,6.73-1.31c.5,0,1,.06,1.51.06a18.2,18.2,0,0,0,6.57-1.22,20.24,20.24,0,0,0,4.71.54,23,23,0,0,0,9.36-2.07,18.36,18.36,0,0,0,9.69-3,16.92,16.92,0,0,0,5.17-1c.35,0,.69,0,1,0a34.08,34.08,0,0,0,8.56-1.29l.74.2a39.89,39.89,0,0,0,11.14,1.73,16.93,16.93,0,0,0,5.89-1.07,19.88,19.88,0,0,0,5.32-1.49,18.21,18.21,0,0,0,5.82-2.53,17,17,0,0,0,7.56-2.93,36.61,36.61,0,0,0,5.37-1.52,21.2,21.2,0,0,0,13.53-8.69l.5-.37a20.77,20.77,0,0,0-1.26,5.27,17.41,17.41,0,0,0-.14,10.4,16.63,16.63,0,0,0-3.1,5.24,17.47,17.47,0,0,0-12.61,10.35c-1.37,3.29-3.64,11.83,4.76,20.31a17,17,0,0,0,8.31,4.6c.36.49.75,1,1.16,1.47a17,17,0,0,0,2.75,2.56c-.16.39-.33.76-.48,1.11-2.44,5.62-5,11.4-5.94,17.42-2.52,6.67-4.48,13.29-6.38,19.71-1.6,5.41-3.13,10.58-4.89,15.44a18.48,18.48,0,0,0-4.17,12.79c.48,9.55,7.57,17.18,16.51,18.18a17.12,17.12,0,0,0,8,1.89,17.94,17.94,0,0,0,7.52-1.69,19,19,0,0,0,6.75,1.22h.11a17,17,0,0,0,4.73,1l.65.25a18.45,18.45,0,0,0,2.85,5,18,18,0,0,0,3.93,3.62,17.32,17.32,0,0,0,1.27,1.73,17,17,0,0,0,13,6.11c11.74,0,15.74-10,17.47-14.58.58-1.42,1.11-2.91,1.62-4.43a25.57,25.57,0,0,0,6-6.73,16.92,16.92,0,0,0,2.52-7,32.6,32.6,0,0,1,.86-3.9,16.85,16.85,0,0,0,2-4.74,19.26,19.26,0,0,0,1.09-2.56,21.18,21.18,0,0,0,5.59-12.71,42.34,42.34,0,0,0,1.35-7.34q.33-.3.84-.72a17,17,0,0,0,6-14.49,29.87,29.87,0,0,0,2.38-3.67c1.41.31,2.88.57,4.36.75a46,46,0,0,0,5.93,1.5,22.89,22.89,0,0,0,10.35,2.31l1.37,0a17,17,0,0,0,5.78,1h.44a21.24,21.24,0,0,0,3.35.84l.58.3a21.33,21.33,0,0,0,7.8,2.14,17,17,0,0,0,8.86,2.5h.45l.26.11c3.14,2.07,7.56,3.54,13.79,3.54h.86a17.13,17.13,0,0,0,2.78.44,22.42,22.42,0,0,0,2.28.46l.4,0a19.14,19.14,0,0,0,2.94.81l0,0c-.14.47-.29.92-.4,1.42-1.25,6,.41,14.24,8.82,19.5l.3.18a19.68,19.68,0,0,0,11.25,7.22l.83.43c1.68,4.5,5.33,9.74,13.23,12.74a20.36,20.36,0,0,0,6.08,4.93,38.53,38.53,0,0,0,4,8.5c.28.46.62,1,.92,1.38l.28.36a14.76,14.76,0,0,0,1.67,1.85,19.91,19.91,0,0,0,14.3,5.45,38.44,38.44,0,0,0,7.86-.92q.91.09,1.83.09a18,18,0,0,0,8-2,26,26,0,0,0,4.79.48,19,19,0,0,0,8.26-1.83,15.82,15.82,0,0,0,2.06-.22l1.59-.27c.77-.13,1.45-.26,2-.33a17.77,17.77,0,0,0,3.63-.53,19.35,19.35,0,0,0,11.77-2.44,70.07,70.07,0,0,0,7.93-1.47,30.64,30.64,0,0,0,7.47-1.33c.78-.21,1.72-.46,2.92-.75a23.11,23.11,0,0,0,3.78-1.16c.53-.2,1.61-.62,2-.7a17,17,0,0,0,4.48-1.2,43,43,0,0,0,5-1.61,41.3,41.3,0,0,0,11.55-4.08,45.18,45.18,0,0,0,10.24-3.6c1.31-.59,2.55-1.15,3.46-1.46a16.78,16.78,0,0,0,3.67-1.77c1.49-1,3.11-1.94,4.78-3l.85-.51a93.5,93.5,0,0,0,10.2-6.62c1.2-.86,2.38-1.75,3.58-2.71l.41-.31c.48-.39.93-.78,1.38-1.17l1-.88c16-13.6,24.72-29.77,25.86-48.08,1.83-29.33-16.94-53-21.85-58.61-.4-.57-.81-1.12-1.25-1.68-13.57-18.56-33.82-28.89-51.71-38-4.4-2.24-8.56-4.37-12.61-6.58l-2.82-1.59c-2.82-1.58-5.68-3.18-8.41-4.83a19.48,19.48,0,0,0,1.4-2.73,17,17,0,0,0,10-12.37c.68-.86,1.23-1.66,1.65-2.27s.85-1.25,1.33-1.91c.23-.11.45-.23.67-.35,3.26-1.83,6-4.53,9.08-7.66l1.16-1.15a16.91,16.91,0,0,0,9.64-5.3,6.72,6.72,0,0,1,1.53-1.19,22,22,0,0,0,5.56-4.85,27.38,27.38,0,0,0,11.56-6.26q-1.34,1.74-2.65,3.5l-.31.42c-18.53,26.37,4.35,55.22,12.84,65.92,3.73,4.82,10.68,13.8,21.56,13.8a19.88,19.88,0,0,0,13.67-5.62,18.3,18.3,0,0,0,9.55-12.84l.21-.23a56.17,56.17,0,0,0,5.72-6.85c4.13-4.2,5.59-6.13,7.44-9.58.09-.17.18-.35.29-.54,6.52-2.42,10.08-8.35,12-11.55a16.7,16.7,0,0,0,.83-1.56,24.43,24.43,0,0,0,6.17-7.85,17,17,0,0,0,8.65-11.42l.1-.09a17.08,17.08,0,0,0,5.46-10.19c0-.06,0-.11,0-.17.72-1.27,2.33-3.44,3.36-4.82,2.83-3.82,6-8.12,7.57-13.36a34.87,34.87,0,0,1,2.53-5,45.93,45.93,0,0,0,5.16-11.68c3.81-6.89,3.07-13.55,2.72-16.75,0-.28-.07-.61-.09-.89a16.93,16.93,0,0,0,.69-6.42c.08-.58.15-1.21.2-1.89A24.1,24.1,0,0,0,1675.92,869.85ZM573.45,1058.1a99.1,99.1,0,0,0-13.32-20.16c-.4-.57-.81-1.12-1.25-1.68-13.57-18.55-33.83-28.89-51.71-38-4.4-2.24-8.56-4.36-12.6-6.58l-2.84-1.59c-2.82-1.58-5.67-3.18-8.4-4.83a17.55,17.55,0,0,0,1.4-2.73,17,17,0,0,0,10-12.37c.68-.86,1.23-1.66,1.65-2.27s.85-1.25,1.33-1.91c.23-.11.46-.23.68-.36,3.26-1.83,6-4.52,9.07-7.65l1.16-1.15a17,17,0,0,0,9.65-5.3,6.42,6.42,0,0,1,1.52-1.19,22,22,0,0,0,5.56-4.85,27.52,27.52,0,0,0,11.56-6.25c-.89,1.15-1.78,2.32-2.65,3.49l-.31.42c-18.49,26.31,4.24,55.08,12.9,66,3.75,4.84,10.68,13.72,21.5,13.72a19.88,19.88,0,0,0,13.67-5.62,19.29,19.29,0,0,0,6.34-5.45Q580.27,1035.23,573.45,1058.1Zm388-59.83a18.81,18.81,0,0,0,1.78-3.09,28,28,0,0,0,4.66-4.17c.86-.61,1.64-1.2,2.33-1.72a26,26,0,0,1,2.62-1.85q.72-.36,1.41-.78a38.84,38.84,0,0,0,4.06-3,18.14,18.14,0,0,0,1.91-.43,21.41,21.41,0,0,0,12.64-9.94,17,17,0,0,0,2.06-1.73l.39-.09c1-.26,2-.52,2.94-.83a17,17,0,0,0,8.12-5.8c.79-.72,1.86-1.72,3.13-3.07a21,21,0,0,0,2.88-2.29,19.49,19.49,0,0,0,8.68-3.56c-7.35,15.17-14.75,31.54-21.41,48.67a23.38,23.38,0,0,0-3.82-.71,16.59,16.59,0,0,0-5-1.7C981.34,1000.53,971.58,999.23,961.45,998.27Zm289.3-20.2-2.88,6.88c-.63-.05-1.27-.07-1.92-.07a23.5,23.5,0,0,0-16.23,6.17,17.13,17.13,0,0,0,1.3-7,22,22,0,0,0,.5-2.72l.07-.15a17.26,17.26,0,0,0,1.86-3.76,17.59,17.59,0,0,0-1.47-14.61,18.76,18.76,0,0,0-9.49-12.49,16.89,16.89,0,0,0-3.16-1.64c-8.65-3.38-18-3.84-26-3.84-2.52,0-5.06.05-7.56.1-2.19.05-4.34.1-6.41.1l-1,0a487.7,487.7,0,0,0-54,6.59,26.88,26.88,0,0,0,1.57-3.37c.16-.4.3-.81.42-1.22a28,28,0,0,0,.76-3.23,25.62,25.62,0,0,0,8.41-13.19,17.14,17.14,0,0,0,.62-4.42,23.3,23.3,0,0,0,5-6.57c.18-.33.34-.66.5-1l1,0a26.42,26.42,0,0,0,9.46-1.84c.43,0,.87,0,1.3,0a21,21,0,0,0,5.24-.66,19.51,19.51,0,0,0,3-.38c.49,0,1,.06,1.5.06a32.93,32.93,0,0,0,8-1.28,20.09,20.09,0,0,0,2.81.2,25,25,0,0,0,9.06-1.85h.4a17,17,0,0,0,5.11-.79,24.82,24.82,0,0,0,11-6.64l1.71-.29a19.05,19.05,0,0,0,3.88.39,21.55,21.55,0,0,0,3.21-.25,16.83,16.83,0,0,0,9-.09,18.8,18.8,0,0,0,6.12,1,23,23,0,0,0,11.84-3.52l.66-.08a21.55,21.55,0,0,0,4.64.49,24.74,24.74,0,0,0,4-.35,19.34,19.34,0,0,0,7.51,1.53,18.37,18.37,0,0,0,4.81-.66c2.28,7.95,9.92,13.62,19,13.62l.82,0C1267.75,937.54,1259.12,958.11,1250.75,978.07Zm148.07,39.08c.31-.27.67-.56,1.09-.91,1.14-1,2.77-2.33,4.93-4.31a32.61,32.61,0,0,0,9.09-8.61,23.29,23.29,0,0,1,2.8-3.2,68.86,68.86,0,0,0,5.23-5.18c1.14,12.93,3.7,27.75,9.18,39.79a233.36,233.36,0,0,0-35.7-12.87,17.12,17.12,0,0,0,3-4C1398.61,1017.52,1398.73,1017.3,1398.82,1017.15Zm-38.88-72.31a17.51,17.51,0,0,0,0-3.69,30.33,30.33,0,0,0,1.66-4.13c.38-1,.77-2,1.2-3.2a16.7,16.7,0,0,0,3.48-3.54c2.42-3.33,6.23-8.57,6.16-15.44a17.26,17.26,0,0,0,2.38-8.14c.41,0,.83,0,1.25,0s.69,0,1,0a21.61,21.61,0,0,0,9.55,2.37,18.69,18.69,0,0,0,2.71-.19c.69.36,1.39.76,2,1.09a15.38,15.38,0,0,0,1,1.78,17.52,17.52,0,0,0,3.91,8.74A276.85,276.85,0,0,1,1359.94,944.84ZM1439.88,1096a18.26,18.26,0,0,0,1.7-3.72,17.13,17.13,0,0,0,.55-2.22,28.89,28.89,0,0,0,4.62-7.88,21,21,0,0,0,7-12.32,16.9,16.9,0,0,0-.13-6.65c2.52,2,5.09,3.83,7.65,5.58.38.26.76.51,1.16.73,2.85,1.63,5.14,2.76,7,3.67a45.86,45.86,0,0,1,5.65,3.14,13.8,13.8,0,0,0,1.43.85c2.74,1.47,5.53,2.79,8.24,4.06l3,1.43C1472.16,1088.68,1456,1092.7,1439.88,1096Z" transform="translate(-357.12 -810.44)"/><path d="M545.36,1046.51c-14-19.38-37.94-28.45-59-40-9.49-5.37-19.8-10.73-27.22-18.57,2.88-6.18,4.53-5.36,8.25-10.72,3.3-1.24.41-2.06,4.12-5.36-.41-3.3,4.54-4.13,6.6-5,.83-5.36-3.71-.83,2.47-7-.41,3.3,5-8.66,9.53-9.08,3.67-2.06,14.44-16.08,15.64-10.72,4.12-4.54,7.42-4.54,6.18-6.19.87-5.77,10.31-2.47,14.44-8.25a297,297,0,0,1,29.74-16.5c1.65-1.65,7.83-8.66,6.18-3.71,3.3-2.47,16.09-3.3,23.52-5.77,0,0,5.65-2.73,4.86.62a9.08,9.08,0,0,1-3.63,4.33c-12.78,16.5-26.81,31.76-39.18,48.26-10.73,15.26,2.89,33.82,12.37,45.78,9.9,12.79,9.08,5,13.61,3.71,2.48-1.24-.41-1.24,1.65-3.71-.82-2.48,6.19-7.43,8.67-12,7.42-7.43,3.71-4.54,9.48-12.79,7-9.07,2.89,3.3,9.08-7-3.3-.41,2.06-6.6,4.12-7-2.47,5.36,5.36-3.71,1.65-2.89,2.48-5.77,6.6-6.19,7.84-5.77-1.24-3.72,1.65-9.49,5.36-9.08a3.73,3.73,0,0,1,.41-2.06c-.82,0-1.65,0-.41-.83l.41.42c2.06-6.6,9.9-13.62,11.14-18.56,2.47-7.43,7.42-12,7.84-18.15,4.53-5,0-9.49,2.47-16.09-1.24.41.83-4.54,0-5.77,2.48-3.72-3.71-9.08-2.06-13.62,4.12-3.29-3.71-2.88-.83-10.31,0-2.47-2.06-6.18-1.65-9.9-5,0-2.47-7.42-6.6-9.48-2.47-4.95-2.88-4.13-12.37-7.84a12.29,12.29,0,0,0-8.66-1.65c-7,0-16.09,2.89-23.51,4.13-46.2,12-92,37.94-128.32,73-16.91,16.5-31.76,36.71-36.3,58.16a34.73,34.73,0,0,0-1.88,11h0a1.41,1.41,0,0,0,0,.18c0,.81,0,1.6,0,2.35.08,9.51,1.21,43.55,13,58.27,4.54,8.25,12,14,19.8,19.38,5.77,3.3,8.66,4.13,13.61,7.43,6.19,3.3,13.61,6.19,19.38,9.9,4.13.45,9.94,4.58,14.85,6.64,13.66,4.91-13.2,13.16-19.79,17.69-31.76,13.24-64.35,17.78-96.11,23.56-.82,4.9-7,.78-2.89,4.53,8.66-.41-14,.83-7.42,5,4.54-1.24,2.47,5.74,7.84,5.36,2.88,1.24,4.12,3.3,6.6.83,8.24,2.89,4.53,3.67,4.53,8.66.41,5.32,7,4.54,9.08,5.78-2.89.41.82,1.65.82.41,0,.41.41.82.41,1.24-.4.4-.35.71,0,1,.38,2.21,4.12,2.45,4.85,2.45s5.21,1.77,4.38,5.11c-.77,3.07,2.19,8,2.67,8.75a.67.67,0,0,0,.09.14v0h0c1.44,1.79,8.17,0,11.53-.94,1.65,3.3,1.24-4.12,3.3-.82,2.07-.83,3.72-.41,5.78-.41l.33-.33.19,0,.3.3c2.07.41,3.72.82,4.54.41,2.89-2.06-.41-2.48,6.6-1.65a48.2,48.2,0,0,1,5.78-.83c6.18-3.3,4.53,2.07,9.48-2.06,2.89-.82,7.43-.82,12.38-2.47,2.47.41,3.71-.42,9.07-1.65.41,0,3.75-1.65,7-2.07,0-.41,5.36-1.23,6.6-2.47,3.71,0,9.08-2.47,11.14-4.12,3.75.41,8.7-2.89,13.65-4.58,2-1.25,4.09-2.54,6.3-3.89a76.72,76.72,0,0,0,8.73-5.65c1.06-.76,2.09-1.55,3.09-2.35l.28-.22c.47-.37.87-.75,1.32-1.12l.57-.48c44.23-37.42,1.72-83.38,1.7-83.4C546.37,1047.85,546,1047.25,545.36,1046.51Z" transform="translate(-357.12 -810.44)"/><path d="M1660.26,881.12c2.48-3.72-3.71-9.08-2.06-13.62,4.12-3.29-3.71-2.88-.83-10.31,0-2.47-2.06-6.18-1.65-9.9-5,0-2.47-7.42-6.6-9.48-2.47-4.95-2.88-4.13-12.37-7.84a12.29,12.29,0,0,0-8.66-1.65c-7,0-16.09,2.89-23.51,4.13-46.2,12-92,37.94-128.32,73-16.91,16.5-31.76,36.71-36.3,58.16a34.73,34.73,0,0,0-1.88,11h0a1.41,1.41,0,0,0,0,.18c0,.81,0,1.6,0,2.35.08,9.51,1.21,43.55,13,58.27,4.54,8.25,12,14,19.8,19.38,5.77,3.3,8.66,4.13,13.61,7.43,6.19,3.3,13.61,6.19,19.38,9.9,4.13.45,9.94,4.58,14.85,6.64,13.66,4.91-13.2,13.16-19.79,17.69-31.76,13.24-64.35,17.78-96.11,23.56-.82,4.9-7,.78-2.89,4.53,8.66-.41-14,.83-7.42,5,4.54-1.24,2.47,5.74,7.83,5.36,2.89,1.24,4.13,3.3,6.6.83,8.25,2.89,4.54,3.67,4.54,8.66.41,5.32,7,4.54,9.08,5.78-2.89.41.82,1.65.82.41,0,.41.41.82.41,1.24-.4.4-.35.71,0,1,.38,2.21,4.12,2.45,4.85,2.45s5.21,1.77,4.37,5.11c-.76,3.07,2.2,8,2.68,8.75a.67.67,0,0,0,.09.14v0h0c1.44,1.79,8.17,0,11.53-.94,1.65,3.3,1.24-4.12,3.3-.82,2.07-.83,3.72-.41,5.78-.41l.33-.33.19,0,.3.3c2.07.41,3.72.82,4.54.41,2.89-2.06-.41-2.48,6.6-1.65a48.1,48.1,0,0,1,5.77-.83c6.19-3.3,4.54,2.07,9.49-2.06,2.89-.82,7.43-.82,12.38-2.47,2.47.41,3.71-.42,9.07-1.65.41,0,3.75-1.65,7-2.07,0-.41,5.36-1.23,6.6-2.47,3.71,0,9.08-2.47,11.14-4.12,3.75.41,8.7-2.89,13.65-4.58,2-1.25,4.09-2.54,6.3-3.89a75.8,75.8,0,0,0,8.72-5.65c1.07-.76,2.1-1.55,3.1-2.35l.28-.22c.47-.37.87-.75,1.32-1.12l.57-.48c44.23-37.42,1.72-83.38,1.7-83.4-.36-.55-.78-1.15-1.37-1.89-14-19.38-37.94-28.45-59-40-9.49-5.37-19.8-10.73-27.22-18.57,2.88-6.18,4.53-5.36,8.25-10.72,3.3-1.24.41-2.06,4.12-5.36-.41-3.3,4.54-4.13,6.6-5,.83-5.36-3.71-.83,2.47-7-.41,3.3,5-8.66,9.53-9.08,3.67-2.06,14.44-16.08,15.64-10.72,4.12-4.54,7.42-4.54,6.18-6.19.87-5.77,10.31-2.47,14.44-8.25a297,297,0,0,1,29.74-16.5c1.65-1.65,7.83-8.66,6.18-3.71,3.3-2.47,16.09-3.3,23.51-5.77,0,0,5.66-2.73,4.87.62a9.08,9.08,0,0,1-3.63,4.33c-12.78,16.5-26.81,31.76-39.18,48.26-10.73,15.26,2.89,33.82,12.37,45.78,9.9,12.79,9.08,5,13.61,3.71,2.48-1.24-.41-1.24,1.65-3.71-.82-2.48,6.19-7.43,8.67-12,7.42-7.43,3.71-4.54,9.48-12.79,7-9.07,2.89,3.3,9.08-7-3.3-.41,2.06-6.6,4.12-7-2.47,5.36,5.36-3.71,1.65-2.89,2.48-5.77,6.6-6.19,7.84-5.77-1.24-3.72,1.65-9.49,5.36-9.08a3.73,3.73,0,0,1,.41-2.06c-.82,0-1.65,0-.41-.83l.41.42c2.06-6.6,9.9-13.62,11.14-18.56,2.47-7.43,7.42-12,7.84-18.15,4.53-5,0-9.49,2.47-16.09C1659,887.3,1661.08,882.35,1660.26,881.12Z" transform="translate(-357.12 -810.44)"/><path d="M787.07,1051.05c4.95-17.73,12-35.06,17.74-52.79-.42,0,1.64-4.13,2.47-6.19,3.71-1.65,0-5.36,1.65-4.54,1.65-5.36.41-3.71,2.06-5.77,0-.41,0-.41.41-.83,0-.41,0-.41.42-.82-.37.37.24.41.37-.46,0,.05-.17.05-.37.05,2.47-3.3,4.53.82,2.88-5.37s4.54-5,3.3-12.78c2.89-5.36,2.89-10.31,6.19-14.85,0-4.13,3.3-4.13,2.89-7,0-9.08,9.48-8.67,5.36-13.62,3.3-1.23,4.54-2.88,2.48-2.47,3.71-2.06-1.24-7,5.36-10.31-2.89-2.89-1.65-4.54,1.65-7,6.6-2.48,2.47-7,1.65-8.25.82,0,4.95-3.3,4.53-5.37.83-3.71-.41-7,3.3-13.61,5.74-7.75-1.94-1.77,1.2-8.49a.43.43,0,0,1,0-.17c.37-1.28,2.43-9.24-.41-5.36-1.24-1.24,0-9.49-4.13-12,.83-3.71-6.6.82-5.36-5.78-3.3-.82-3.3-4.95-4.12-4.95-2.07-.82-2.89-7.42-.42-6.6,2.48-6.59-2.88-4.53-3.71-3.29-2.06-4.13-3.3,4.94-5-2.48-3.71-2.47-8.25,5.36-6.18-.82-7,5.77-11.55,14.43-16.09,23.09-25.57,46.2-49.08,93.22-66.82,141.48-1.65,9.07-4.12,9.49-2.47-2.06-.42-17.33,3.29-36.3,3.71-53.62,2.06-6.19-.42-7.84,2.47-11.55,0-6.19-5.77-2.89-.41-6.19,3.3-4.95-1.65-7-.41-7.42-2.07-5.78.41-9.9,2.89-9.49-4.54-3.3-2.48-8.25,0-12.37.41,1.23,3.29,2.47.41-1.24.82-2.06,2.06-4.13,2.06-5.78,0-3.3-2.89-1.65-1.65-7-.41-.41-.41-.82-.82-1.65.41.41.82,0,.41-.41h-.41c-.83-3.3,1.64-9.9-.83-15.67,0-2.89-.83-6.19-2.47-7.84.41,0,.41-.41,0-.83a.41.41,0,0,1-.42.42c-1.24-1.24-2.88-.83-4.53,1.65-1.65-5.78-2.48-10.32-5.78-4.13-3.71-3.3,2.06-4.54-2.06-6.6,1.65-3.71-9.49,7.43-7,1.24-.83-.83-.42-11.55-5.78-5.78-1.28-2.88-5.77-11.13-7.46-4.94-4.13,4.94-2.44-7.43-4.5-1.24,0,2.88-4.58-3.3-7-3.3-4.13,1.24-5.36,3.71-8.7,2.47-2.85,4.54-2.85-5.77-4.91,5-9.53,10.31-14.07,25.16-21.08,37.54-42.07,89.5-76.31,181.52-95.28,274.33,1.65,2.89-.82,11.55,0,14,7.84-1.65,6.19.41,15.26-1.24,1.65-7.42,6.6-5.36,5.78,0a4.86,4.86,0,0,0,2.06,2.07.41.41,0,0,1,.41-.42c.41,0,.41.42,0,.42,2.06,0,4.13-2.07,5.78-.42h.41c.41,0,.41.42,0,.83l.41.41c2.06-4.12,2.89,2.89,6.19-1.65,3.3,4.13,2.06-4.12,4.95,0,.82,5.78,5.77-5.36,5.77,2.06-4.12,2.48,4.95,3.72,2.89.83,0-4.54,1.65-6.19,4.12-1.24,3.3-8.25,1.65,5.36,5.78-1.24,4.95-4.12-.83-4.12,2.06-9.07-4.54.41,7.84-5.77,2.06-10.72,2.48-2.52,2.89-10.32,4.54-15.68,1.65-4.54,3.71-13.65,5.77-19,0,0,4.13-10.77,3.3-12.83,3.72-3.71.83-4.54,3.72-7-1.65-4.12,2.47-11.18,3.71-12.79a21,21,0,0,1,1.65-8.29c2.89-5,3.3-7.79,5-13.61,1.24-5.77,4.54-20.21,8.66-23.51,1.24,33,0,67.65,13.24,96.15,2.89,10.31,18.15,12.37,21,11.55-.37,7.42,7.88,7,7.47,10.68,1.24-4.13,8.25-4.5,9.9-10.31-.41,5.4,4.12,1.28,5.36,5.4,4.54-.82,5.78,6.6,7.84,2.85-.83,7,4.54-.37,8.66-.79,2.47,2.07-8.25,3.72.83,3.72,1.64,9.9,4.12,3.71.41-1.24,3.3-6.6,2.47,7,4.95-.41,3.3-4.13,1.65,2.47,4.53-2.89,3.72,2.89-.41,13.61,6.19,9.07,4.13,6.19,1.65-2.47.41-3.71,0-.41,2.89-5.36,4.54-8.25-2.47-2.47,1.65-2.89,0-6.19,1.65-3.75,1.65-8.25,2.48-11.59,1.65-6.6,4.53-18.56,6.18-22.23.42-2.51,2.89-10.76,3.3-14,.41-.87.83-2.06,1.24-2.93-.41,0-1.24,0,0-.78v.37C780.88,1073,783.36,1062.19,787.07,1051.05Z" transform="translate(-357.12 -810.44)"/><path d="M993.72,1057.65c-2.07,1.65-1.24-2.47-6.19-2.06.82-1.65,7.83-5.32,3.3-7.84,1.65-5.36,7.42-2.47,7.83-8.25-5.36-5,2.07-3.3-2.06-7.42,2.48-2.48,0-4.13.41-6.19-1.23-2.47-2.88-1.24-.41-3.71-1.24-2.89-5,0-8.66-3.3-23.92-4.12-48.67-5.77-74.24-5.77.82-5.78,1.65,0,4.95-5,2.06-1.65,4.12-3.3,6.18-3.72,1.65-2.88,5.78-3.3,7-5,2.88-1.23,4.53-4.12,6.18-6.18-.41,0-.82-.42-.41-.42H938c.83-.82,1.24-1.65,2.06-2.06,0-.82,4.54-2.47,5.78-2.89v.42a.4.4,0,0,1,.41-.42c.41.42.41.42,0,.42,1.94,1.94,2.43-3.8,1.44-3.8,2.85-1.61,6.44-2.88,8.46-6.1,3.3-2.06,5.77-4.54,9.07-6.19,3.3-2.06,9.49-9.07,10.32-5.36,2.88-.83,3.3-4.13,4.53-5.78.42,0,1.24,0,.42-.41a2.94,2.94,0,0,1,2.47-1.24c4.13-4.12,7.43-4.12,9.9-5,.41-1.23,2.47-2.06,6.19-6.59,2.88,0,3.71-6.19,9.07-7,.83,3.72,4.13.83,5.36-1.65-2.47-2.88,7.43,1.65,4.54-4.12a1.52,1.52,0,0,1,1.24-.41h.41c1.24.82,1.65,3.3,7.84-2.89-1.24,1.24-2.07,1.65-2.48,1.65,0-.41,0-.41-.82-.41-2.07-.83-2.07-5,.41-1.65,7.42,0,12.79-4.13,5.77-5.78.42,0,.42,0,.42-.41-.83.41-.83,0,0,0,4.12-7.42,7-5.36,9.07-11.14-.82-3.3-6.19-7.42-2.47-9.48,3.3-5-4.54-5.78,1.65-9.49,4.53-1.24,2.06-1.65-1.24-4.12-1.16-.58-2.52-4.62-2.52-4.95a7.56,7.56,0,0,1,.87,2.06c.41-3.3,3.71-9.49.82-9.08,4.13-2.88-.41-3.3,1.24-5.36,7.43,2.48,5-4.54-1.24-4.54,0-5.36-3.71-1.23-5.77-2.88-5-1.65-4.13-2.48-12.38.82-27.63,14.44-52.79,36.3-77.54,54.86-7.84,7.42-5.36,2.06-1.65-1.65.83-2.47,1.65-6.6,5.36-8.25-2.88,0-.41-8.25,3.3-9.9,1.24,3.3.83-11.13,5.36-13.61.83-3.71-1.64-1.65,2.07-5.36,3.71-4.95-6.19,4.54,0-5.36,3.3-7,1.65-13.61,3.3-19.8-4.13,2.89-7-2.06-6.6-3.71-2.06-2.89-3.3.41-5-4.13,4.12-5.36-4.13.41-5.36-5.77,1.65-9.49-5.37,0-4.13-6.19,2.48-6.19-3.3-2.89-5.77-7.43-4.54,2.89-2.07,1.24-4.54-1.23-6.19,3.71-6.19,1.65-10.31,5.77-10.31,7-12.79,27.64-20.62,39.6-20.63,45.37-43.31,89.92-64.35,135.29-7.88,9.9-20.62,5.36-30.93,6.18-1.28,5-9.12,7.84-4.17,10.32-3.3,8.25,1.24,2.88,3.71,7-.41,2.47,2.89,7.42-4.54,9.07-5.77,2.89,3.72,3.34-4.53,5.41-.41,4.12,0,6.55.82,7.38-5.36,3.3,2.48,7.05,0,9.11.41,2.85,0,6.19,1.24,8.25-5.77.79,4.12,3.72.41,6.56-1.65,4.54,1.24,4.13-6.6,5.41.83,4.12,3.3-2.52,4.13,1.6,1.65,1.24,4.12,3.3,4.95.46,2.51.78,7.83-1.28,4.58.78-1.28,10.31-9.12,24-12.83,35.47-2.06,9.12-10.31,20.21-6.6,27.27,6.19-.41-2.06,2.47,1.24,5.77,1.65-2.88,3.3-5,3.3-1.23,4.53-.42,5.77-1.65,10.72-2.48,2.1,3.71-.41,2.89,4.17,5,1.6,1.65,7-.41,5.32,1.24,3.63,2,4.08-1.45,4.49,2.14-.78,1.69-2.8,5.28.87,4,2.06,3.3,7.42-7,8.25,0,2.88,1.24,14.06-3.71,8.25.83,1.28,4.54,2.88-.83,5.4-3.71-5,8.25,5.36,3.3.78,8.66,4.58-3.3,2.52-7.43,4.58-11.55.83-2.89,3.3-1.65,2.06-6.6,2.89,0,5-7.42,1.24-2.47.83-4.13,3.71-11.14,5.78-12.38-5.37-2.51,5.36-5.77,4.53-11.55-1.23-2.93,5.37-13.65,5.37-17.36,6.18-7,.41-6.19,3.71-11.1,2.47.37,5.36-12,8.25-16.13,6.18.83,2.06,3.35,8.66-.37,2.89,2.44,8.66-1.27,11.14.79,3.3,1.28,5.77.41,9.89-.42,3.3,1.28,6.19-1.64,9.49,0,2.06,2.89,6.19-2.84,7.43.83,1.23-1.61,8.66-.83,14-1.2,5,0,10.31,2.44,12.37,1.2-4.53,2.52,11.55-2.06,5.37,1.65,2.88,1.28,7-1.2,11.13-.78,7,1.19-6.6-2.93-.82-3.76,5.77,2.48,8.66-1.65,7.83-2.06a9.21,9.21,0,0,0,7.84-.78c4.54,1.19,7-5.78,9.49-7.84,4.53-1.69-1.24-8.25,3.3-2.93C988.35,1064.7,997.43,1061,993.72,1057.65Z" transform="translate(-357.12 -810.44)"/><path d="M1205.31,1003.21c4.54-.83,2.47-2.48-.41-4.54-2.06.82-2.48.41-1.65,0-.41.41.82.41.41,0,1.65-1.24,5.36-2.89,5.36-3.71,5.78,4.12.41-2.89-.82-5.78,2.47-7.42,1.65-2.06,2.88.41-.41-2.06,6.19-6.18.83-5.36-.83-3.3.41-4.53,2.06-2.88,2.89-5.37-4.12-4.13,2.48-7.84-5.37-2.48,5,.82-.83-4.13.41-5.77-2.47-3.71-2.47-5-9.49-3.71-22.69-2.47-33.83-2.47-28.46,1.65-57.33,7-85.79,12.79a1.52,1.52,0,0,1,.41-1.24c2.07-4.13,2.07-9.9,2.48-9.9,5.77.41,2.89-5,2.47-5,1.24.41,2.07-1.24,2.89-2.89,0,.37.62.42.5-.16a4.13,4.13,0,0,1,2.39-2.72c-3.71-2.07,3.3-5.37,5.36-10.73,1.24-4.12-.82-5.36,2.06-7.42-2.06-2.89,5-1.24,7-8.67-2.88-3.29.83-3.71,0-6.18,2.48-4.54,2.89-1.65,3.72-5.36,2.88-8.25,0,3.3,3.3-2.89-.42-3.71,2.06-9.49,4.53-7,4.95-1.24.83-6.19,5.78-5.78,3.71,4.13-1.24-8.25,4.54-3.3-1.24.41-3.3,1.65.41,4.13-3.71,3.71,9.9,2.06,7-3.3,1.24,0,2.89,5.77,7.84,2.47,5,2.06,3.3-5.36,7.83-2.06-6.18,4.54,6.6.41,7.84-.41,1.65,5,12.79-5,11.55-.42,7.84-2.47,3.3-6.59-2.06-5.77H1181a3.13,3.13,0,0,0-.61,0c6.31-3.79,11.38,1.53,12.58-.86,3.3-.42,7-1.24,10.72-1.65,1.24,3.3,9.49-3.72,9.07,1.23,5-2.47,2.07-2.06,5.37-2.88,3.71-.83,5.36,0,8.66-1.24-7,3.3-4.54,6.19,0,3.3,1.65-3.71,5.36-.83,10.72-3.3,2.89,2.89,5.78.41,10.31,0-.41-1.65,4.13,5.36,6.19,1.24-1.65-.83-2.06-9.08,5.36-6.6,3.3-3.72,2.89-4.13,5.37-7,2.88-4.53-2.48-5-2.07-9.48,1.24-1.24,3.71-.41,3.3-5.78,0,0,5.36-5.77,4.54-5.77,5-2.89,5.77-6.19,3.71-7.43,5.78-.41,1.65-2.47,2.06-4.12-1.23-1.24-4.12-6.6-6.18-3.3-3.3.41-2.89-7.84-9.49-3.3-3.3-4.54-19.8-2.48-29.28-2.89-30.12.41-60.64,2.48-91.57,9.9-4.13-.82-6.19-5.77-6.6-7.42-1.65-.41-1.65-3.71-7-3.71h-1.24c-3.71,0-5,5.77-8.25,2.88,2.47-.82-4.54.42-5.36,5.78-3.71,16.91-26,10.72-47,16.08,5,1.65-4.54-.41-5,2.89-2.48-.82,3.26,12.37,2.88,7,3.72,1.24,6.19,2.48,2.07,2.89,2.06,3.71,4.12-1.24,4.53,3.3-.82,1.24-2.06,6.19-7.42,4.95-.87,3.3-4.13,3.71-1.24,8.25-1.69.82-.82,4.54-5.36,3.71-7.47,2.89,5.36,5.77-4.58,5.77.87,5,11.18,2.48,7.47,5-3.34,2.89-5.41,10.32-.42,7.84-.41,6.6,3.72,4.54,2.48,10.73,2.06,2.47-9.08,17.32-12.42,25.16-23.92,46.6-45.37,95.28-52.79,144-3.71,23.05-1.24,48.26,17.32,60.18h2.89c0-.37,0-.37.82-.79.46.42.46.79,0,.79a7.38,7.38,0,0,1,5.78,3.34c5.36,3.3-.83-5.78,6.19.78,3.75,5,.41-3.26,6.18,1.28,1.69-.41,8.25,7.43,2.93,6.19,6.19,2.06,7.84,4.12,12.75,5.36,8.29,2.47,13.65,7.84,23.14,7.42,10.31.42,21.86-2.47,30.11-5.77,5.36-2.89,8.25-4.54,9.48-4.13,4.54.42,8.25-5.36,11.55-4.12.41-4.95,6.6-.41,9.49-6.23,6.18-1.61,13.61-9.44,21-12.37,6.6-3.67,7.84-5.74,2.07-3.67-1.65,2.47-8.25,5-10.73,7.79-3.3-.78-6.6,4.58-5.36-2.43-3.71,1.24-9.49,5.77-12.37,5.77-3.72.79,5.36-3.34,7.83-4.53,2.89-3.72,9.49-5,14.85-9.12,6.19-1.2,8.66-6.19,9.49-7.84-4.54,3.34.82-5.32,3.71-4.9-5.36,2.06.83,6.18,1.65.37,4.13-5.32,5,4.53,7.43-2.07-5,1.28-2.07-4.9-4.13-4.12-3.3,0,2.48-7.38-5.36-7.84,3.3-6.6-9.9,1.28-10.31-3.67-.42.83-.42.83-.42,1.2.83.41-.41.86-.41.41-2.89,5,.83-1.2-2.89-2.06-2.06,3.71-7.83,3.71-4.12,0-1.24-4.13-7,3.34-10.31-.41-5.36,1.27,6.19-5.37-2.06-2.85-1.24-2.06-.83-5.4-3.72-2.93-4.53-1.65-3.71-2.47-7.83-2.06-21.86,12.83-45,26.81-68.93,31.39-2.43-2.93.46-1.24-1.61-5-1.64-6.56,2.48,2.06,1.24-7a43.26,43.26,0,0,1-.82-6.19c.41.78,2.88-.41,0-1.65v.37a3.29,3.29,0,0,1,.41-2.85c4.12-9.11-3.34,4.13,0-7.05,6.19-2.84.78-10.72,3.71-11.09,0-3.76,0-8.25,2.89-12,3.71-6.56-1.24-10.31,2.43-9.48,3.3-7.35,6.19-23.72,10.27-20.67,0-.2,9.7,1,12-4.08,2.88,4.12,2.47-3.3,5.36.41-.83-1.65,4.12-1.24,5.77-3.3,2.89.83,5.37,0,7.84-1.24-1.65,1.65,2.48,1.65.41,0a12.83,12.83,0,0,1,7-.82c1.65,0-.83,2.47,5.36-1.24,5.36-4.54,2.88,4.13,10.31.41-7.43-3.3,9.49-3.71,4.54-1.65,3.71,2.48,1.65-4.53,5.77-2.06,1.65-.82,2.48-.82,5-.41,3.71-1.65,8.25-.41,11.55-2.06,6.19-1.65,9.49,1.65,15.67,1.65,2.48-4.13,1.24,1.65,6.6-2.48,1.24,2.06,3.71-5,8.25-2.47-2.89-3.3,11.55-1.24,11.55-5.78-.41,4.13,6.19-2.06,2.89-2.47-2.06,4.54-2.48-2.89,2.89-1.24,2.88-.41,8.24-7.42,3.71-4.95C1204.48,1003.21,1197.06,1006.92,1205.31,1003.21Zm-61.46-108.89c3.71.41,1.65,2.88-.82.82C1143,894.73,1143.85,894.73,1143.85,894.32Z" transform="translate(-357.12 -810.44)"/><path d="M1396.28,1105.13c5.78,1.61,6.19.82,12.38,1.19,0-7.83,2.47-5.32,4.53-7.38-1.65-3.71,5.78-7.84,3.3-4.17,3.71-4.12,3.3-5.32,6.6-2.47-5.36-4.91,4.13-3.26,2.06-6.19.42-4.12-8.25.87,1.65-4.91,4.13-2.47,5.37-8.25,5-9.94,0-2.06,4.54,0,5.37-4.49-5.37,2.06,3.71-9.53-3.3-3.34-3.3,1.27,1.23-3.72-2.07-4.54,4.54,0-.41-6.19-5.77-7.84-21.86-10.72-46.61-15.67-70.53-22.27-2.48-4.13,5.77-6.19,11.55-9.08,4.53-6.18,9.9,1.65,8.25-6.18,5-7.43,7.42-4.13,8.25-3.71,2.88-5.37,3.71-4.54,11.13-11.55,5.36-2.89,4.95-5.37,10.73-10.73,6.18-5.36,12.78-14.85,18.56-22.27,4.53-8.25,12.78-9.49,14.85-20.21,1.65-3.3,4.12-9.08,4.53-12.38,1.65,0,2.89-3.3,5-4.95a1.51,1.51,0,0,0,.41-1.23c0,.41-1.64,0-.41-.42l.41.42c1.66-5.36,5.37-9.08,6.6-14.44,4.13-4.95,4.13-15.26,6.19-16.91,0-3.71-.41-11.55,0-15.67,0-.83,0-1.24.41-1.65-1.65-2.89-.82-8.67-2.47-7.43-9.49-27.22-40-37.12-68.47-40a212.18,212.18,0,0,0-23.1-1.23,313.93,313.93,0,0,0-72.22,8.66c-4.54,0-8.66,4.53-9.49,5-3.3,7,10.35,1.65,9.08,7.83,2.88-1.65-.42,6.19-3.72,9.08-3.3.41-10.31,1.65-7.83,6.18-1.65,4.95,1.23,4.13-4.13,6.19.41,4.13,3.3,1.24,1.65,5.78.83,4.12-6.6,5.36.42,6.18-1.66,4.13,5.36,3.72,1.64,5.78,2,2.39.54,3.63-1.44,4.45.33-.2.54-1,.21-2-4.13.83-2.07,2.48-.83,2.07-1.65.82-3.3,1.64-3.3,2.06-10.31,2.06,0,6.18,0,2.47,4.13,3.3,10.73-5,11.14-.82-1.24,2.88,6.19,4.12,9.53.82,8.25-9.48,1.19,12.38-2.93,18.15-13.2,28.87-25.16,58.16-37.54,87.44-8.25-1.65-15.67-6.18-19.38,2.89-2.48,3.3,0,3.71-2.48,5.36-1.65-3.3-4.12-.82-6.18,2.89,5.36.82,2.47.82,2.06,4.12,1.65,4.54,8.66-3.3,5.36,2.89,4.54,1.24-2.89,0-5,4.13.83,4.12,0,3.3-3.71,2.88-2.48,1.24-2.06,3.72-1.65,6.19-.41,0-.41-.41-.83-.41-.41.82.42.82.83.82v1.24c0,5.78.41,7.84-.83,9.49,4.13,3.71-5.36,3.71-3.3,5.77,0,.41,2.89,4.54.42,5.82,4.53,4.91-3.3-2.06-4.54,3.26-2.47,2.92-12.37-1.65-7.84,2.92,3.72.38,11.14.79,11.55,2.85,3.71-.78,12.38.41,11.14,2.89-2.89.45-17.32-4.54-12.38,1.24,3.72.41,5.37,1.27,8.25,1.27,6.19,6.56-7.42,24.34-8.25,35.06-5.36,13.61-8.24,28-13.61,41.25-3.71.37.83,7.84,1.65.83,1.24-3.72,3.72,9.48,5.78,2.88,2.89.83,5.77-3.34,7-2.47.41-3.71,9.49-4.54,4.12,1.65.42,4.95,5-.41,7.84,3.3,4.95-2.06,4.54,5,8.25-1.65,2.06,2.88.83,5.77,4.95.82-1.24,9.49,5.36-4.12,5.36,2.89,5.78,4.12-4.12,4.12-2.89,4.54-1.64,7.42,1.24,5.36,4.54,3.71,3.71-5.78-2.47,14.44,2.06,2.47,2.07-5,4.13-13.61,5.78-15.67.41-2.47,3.3-10.31,5.36-14.44-.82,5.78-1.24,7.39-4.12,13.62-1.65,4.94-.83,7,2.06,2.47.41-3.3,2.06-9.9,3.3-10.77-.83-2.06,2.47-3.25,1.24-4.9.82-4.13,5.36-3.72,5-8.67a36,36,0,0,0,1.65-9.11c1.23-3.71,1.65-5.32,6.59-9.45-.41-4.12-2.47-6.64.42-9.9,1.23,2.48,9.07-9.89,2.88-8.24-1.23-9.9,7.88-5.78,13.2-5.41,1.24.41,7.06,2.48,11.18,2.48,1.2.86,5.32,1.65,8.25,2.06,2.89,3.34,8.66-.41,11.14,2.47,4.12-1.6,5,2.07,8.62.87-4.13-3.75,2.93,1.2,3.34,2.06,2.47,1.24,7.42-.86,9.07,2.85,4.54,0,5.78.86,9.9,2.51.41,2.07,9.08.42,9.49,1.61,2.31,0-1.32-1.77-2.23-2.31.41.09,1.32.46,3,1.12,10.73,1.65-4.53,1.19,5.37,2.06,2.88,2.47,4.95-2.06,0-2.06-4.54-.42-3.3-4.54.41-2.07,2.06.42,5.36,0,5.77,1.65-1.23,2.48,2.89.83,4.13,2.89,2.47-2.89,5,3.71-2.06,3.3C1389.68,1112.51,1394.22,1103.06,1396.28,1105.13Zm-113.06-223.6a4.14,4.14,0,0,0,3.72-.41C1289,883.18,1280.34,886.07,1283.22,881.53ZM1295.6,896c-2.48-.82,1.65-2.47,4.54-3.71-.42,0-.42,0,.45-.41v.41a1.6,1.6,0,0,0,.82-.41C1305.54,897.2,1297.25,892.25,1295.6,896Zm29.32,84.15a42.78,42.78,0,0,1,3.3-6.19c0,.41,2.44.41,1.66-1.24-.29.29-.79.37-1.08.54a13.51,13.51,0,0,0,2.31-4.66c.41,0,1.24-.41.41-.83V966.5c1.65-4.13,9.08-2.48,3.26-7.84a14.86,14.86,0,0,0,4.58-5.77c0,.41.83,0,.41-.42a.65.65,0,0,0-.33,0c.33-1.89.21-3.38-1.73-4.16,2.89-6.6,3.26-2.89,5.36-5.36-3.71-2.07,1.65-7.84,2.48-11.55,1.65-3.72,6.19-19,7-11.14,3.3-4.54,3.71-5.77,1.65-7,0-7,6.19-5.78,2.48-9.08.82-2.06,2.06-6.18,3.71-11.13.82-1.65,1.23-7.43,2.88-5.36.42,0,.42-.83.83-.83,1.65,2.48,9.9-.41,12,2.89,6.19-2.06,9.9,5,12.38,1.24,5.77.41,11.54,4.53,14,5.77,3.3,0,6.6,4.12,4.12,5.77,3.72-.82,3.3-4.53,6.6-1.23,5.78,1.65.41,6.6-3.3,6.6-2.47,2.47,1.65,2.88,4.13.41,2.06.41,2.88,1.65,3.71,2.47-.41.83.41.83.41.42a6.6,6.6,0,0,0,3.71,2.88c8.25.83-6.18,10.32-11.13,16.5C1384.73,952.06,1355.45,968.15,1324.92,980.11Zm29.7,118.38h.41C1357.1,1098.49,1357.1,1100.55,1354.62,1098.49Zm8.25,0a8.68,8.68,0,0,1,2.48-.42C1366.17,1098.07,1359.57,1100.14,1362.87,1098.49Zm3.71,1.65c-4.12-4.13,5.78,1.69,4.54-2.07C1374.42,1103.06,1369.88,1101,1366.58,1100.14Z" transform="translate(-357.12 -810.44)"/></svg>