<svg width="1322" height="380" viewBox="0 0 1322 380" fill="none" xmlns="http://www.w3.org/2000/svg">
<path d="M1318.8 59.4099C1318.99 58.5601 1319.13 57.6982 1319.21 56.8299C1319.5 53.4322 1318.81 50.0218 1317.21 47.0099C1317.22 46.9233 1317.22 46.8365 1317.21 46.7499C1317.16 43.9701 1316.71 41.2117 1315.88 38.5599C1315.79 38.2199 1315.67 37.8099 1315.58 37.4899C1315.74 33.0992 1314.2 28.8166 1311.27 25.5399C1310.95 25.1799 1310.62 24.8399 1310.27 24.5399C1309.21 21.4611 1307.51 18.6447 1305.27 16.2798C1301.11 9.79985 1296.43 7.66986 1290.14 5.35986C1289.29 5.04986 1288.3 4.68988 1287.14 4.24988C1282.9 1.93583 1278.13 0.748012 1273.3 0.799866C1272.22 0.799866 1271.12 0.7999 1270 0.9599C1263.83 1.1099 1257.51 2.53988 1251.9 3.80988C1249.28 4.39988 1246.81 4.95988 1244.73 5.30988C1244.24 5.38988 1243.73 5.48986 1243.27 5.60986C1199.89 16.8399 1157.27 39.4699 1121.51 70.0599C1122.01 67.0053 1121.67 63.8713 1120.51 60.9999C1120.51 60.8299 1120.51 60.6599 1120.51 60.5099C1120.16 56.5818 1118.78 52.8156 1116.51 49.5899C1108 30.2899 1086.93 8.29986 1035.8 3.10986C1027.5 2.20844 1019.15 1.76114 1010.8 1.7699C985.63 1.84503 960.55 4.79752 936.05 10.5699C933.022 10.9101 930.076 11.7693 927.34 13.1099C924.97 10.9921 922.128 9.47302 919.05 8.67987C915.626 5.93806 911.356 4.47105 906.97 4.52985C906.303 4.52985 905.663 4.55987 905.05 4.61987C899.28 2.88987 893.29 2.88989 889.25 2.88989C887.08 2.88989 884.85 2.93987 882.67 2.98987C880.84 2.98987 879.05 3.06989 877.39 3.06989C876.55 3.06989 875.75 3.06989 875.01 3.06989H874.01C850.72 3.38989 820.57 4.6499 788.73 11.2099C788.091 10.4851 787.392 9.81597 786.64 9.2099C784.407 6.79663 781.685 4.88806 778.654 3.61188C775.624 2.3357 772.357 1.72131 769.07 1.80988H767.83C764.118 1.80622 760.475 2.81209 757.29 4.71985C749.89 5.97985 740.67 12.0599 737.95 22.4399C735.21 23.1599 729.75 23.5699 725.95 23.8699C719.04 24.3999 711.22 24.9999 703.02 27.0899C701.71 27.4211 700.444 27.9078 699.25 28.5399C695.319 29.5844 691.818 31.8456 689.25 34.9999C688.231 36.1221 687.357 37.3687 686.65 38.7099C686.333 39.3229 686.053 39.9539 685.81 40.5999C683.441 39.5258 680.871 38.9636 678.27 38.9499C677.923 38.9499 677.59 38.9499 677.27 38.9499C674.713 37.9817 672.004 37.4771 669.27 37.4599C664.61 37.4599 660.64 38.8999 655.55 40.9399C655.02 41.1599 654.5 41.3899 653.99 41.6599C641.148 48.5379 628.834 56.3594 617.15 65.0599C617.657 62.1144 617.958 59.1372 618.05 56.1499C618.077 54.7559 618.204 53.3657 618.43 51.9899C619.321 48.6279 619.159 45.0737 617.966 41.8068C616.773 38.5398 614.607 35.7172 611.76 33.7198C610.439 32.7956 608.995 32.0618 607.47 31.5399C607.25 30.9865 607.03 30.4865 606.81 30.0399C605.402 27.1813 603.241 24.7611 600.56 23.0399C599.879 21.5555 599.001 20.1697 597.95 18.9199C597.67 18.5899 597.37 18.2599 597.07 17.9199C596.98 17.6999 596.87 17.4699 596.76 17.2399C594.728 12.9673 591.156 9.62042 586.76 7.86987C584.711 5.95316 582.215 4.57828 579.5 3.86987C578.816 3.69234 578.121 3.55871 577.42 3.46985C574.932 2.3941 572.222 1.93166 569.517 2.12134C566.813 2.31102 564.194 3.1473 561.88 4.55988C561.197 5.00961 560.457 5.36609 559.68 5.61987C555.808 6.87226 552.279 9.00467 549.37 11.8499C539.67 19.2199 535.3 31.0499 531.43 41.5399C529.53 46.6899 527.56 52.0199 525.49 55.1799C525.012 55.9063 524.591 56.6686 524.23 57.4599C513.06 82.0299 501.04 106.87 489.41 130.89C485.63 138.69 481.8 146.61 477.97 154.57C477.97 154.57 477.97 154.5 477.97 154.47C478.75 152.47 479.31 150.66 479.77 149.17C480.047 148.172 480.381 147.19 480.77 146.23C481.91 144.653 482.776 142.895 483.33 141.03C485.164 138.439 486.348 135.445 486.78 132.3C489.331 129.868 491.267 126.866 492.43 123.54C494.175 121.152 495.277 118.356 495.63 115.42C495.737 114.947 495.837 114.467 495.93 113.98C497.937 111.673 499.284 108.868 499.83 105.86C502.031 103.548 503.661 100.754 504.59 97.6999C505.146 95.8606 505.435 93.9512 505.45 92.0298C506.86 89.513 507.7 86.7172 507.91 83.8399C508.14 82.2699 508.22 80.9299 508.28 79.8399C508.246 79.0993 508.368 78.3597 508.64 77.6699C511.02 74.3499 514.88 68.0799 512.89 60.2999C513.98 54.9399 514 49.2099 510.45 44.0399C509.714 40.2996 508.179 36.7623 505.95 33.6699C505.502 32.8226 504.99 32.0103 504.42 31.2399C502.977 29.3108 501.156 27.6948 499.07 26.4899C498.86 26.2199 498.65 25.9599 498.43 25.7099C499.298 20.7796 498.196 15.7056 495.36 11.5799C493.652 9.13792 491.378 7.14567 488.733 5.77344C486.088 4.40121 483.15 3.68978 480.17 3.69989C479.73 3.69989 479.29 3.69988 478.85 3.74988C476.307 2.6171 473.554 2.03435 470.77 2.03986C470.4 2.03986 470.03 2.03986 469.68 2.03986C468.546 1.80092 467.389 1.68029 466.23 1.67987C462.294 1.68179 458.48 3.04959 455.44 5.54987C445.84 13.4599 440.18 24.1899 435.2 33.6999C424.45 53.1299 414.81 71.3899 406.14 88.7699C407.472 85.9159 407.988 82.7489 407.63 79.6199C408.22 77.6331 408.523 75.5723 408.53 73.4999C408.554 70.6712 407.978 67.8695 406.84 65.2798C406.792 64.6291 406.708 63.9816 406.59 63.3399C406.513 62.3263 406.342 61.3221 406.08 60.3399C406.723 55.3224 406.383 50.2277 405.08 45.3399C404.722 41.6876 403.705 38.1302 402.08 34.8399C401.175 32.2846 399.709 29.9644 397.79 28.0499C395.836 26.0912 393.433 24.6392 390.79 23.8199C386.462 19.8788 381.601 16.5663 376.35 13.9799C374.306 11.7068 371.693 10.019 368.78 9.0899C363.89 4.0099 358.68 2.68988 354.58 2.68988H354.06C352.477 2.21014 350.834 1.95101 349.18 1.91986H348.73C346.376 0.909536 343.842 0.385726 341.28 0.379883C339.627 0.382907 337.983 0.625398 336.4 1.09985C334.834 1.5732 333.306 2.16492 331.83 2.86987H331.67C330.907 2.77173 330.139 2.7216 329.37 2.71985C320.94 2.71985 315.19 7.42985 312.22 16.7198C306.65 23.7198 302.7 31.5299 299.22 38.8299C299.22 38.6999 299.14 38.5399 299.1 38.4199C299.01 38.0799 298.89 37.6599 298.81 37.3399C298.933 33.0101 297.399 28.7966 294.52 25.5599C294.19 25.1999 293.86 24.8599 293.52 24.5599C292.466 21.4793 290.761 18.662 288.52 16.2999C284.37 9.81987 279.68 7.68988 273.39 5.37988L270.39 4.27985C266.15 1.95727 261.384 0.765714 256.55 0.819885C255.47 0.819885 254.36 0.819858 253.24 0.979858C247.08 1.12986 240.76 2.5599 235.15 3.8299C232.53 4.41989 230.06 4.9799 227.98 5.3299C227.48 5.4099 226.98 5.50988 226.51 5.62988C177.27 18.3799 129.02 45.8099 90.6001 82.9199C68.5101 104.47 54.8001 126.52 49.8301 148.48C48.2713 153.415 47.4228 158.546 47.3101 163.72V163.92C47.3101 164.99 47.3101 166.04 47.3101 167.04C47.4701 184.74 49.7801 216.48 63.1401 234.4C69.3701 245.05 78.5201 252.22 87.5201 258.4C87.9001 258.66 88.2801 258.91 88.6801 259.13C91.5301 260.76 93.8201 261.9 95.6801 262.8C97.6306 263.715 99.5151 264.764 101.32 265.94C101.779 266.252 102.257 266.536 102.75 266.79C105.49 268.26 108.28 269.58 110.99 270.85L113.99 272.28C89.6201 281.71 63.9301 286.23 38.9901 290.61C34.6401 291.38 30.3001 292.14 25.9901 292.92C22.8463 293.494 19.9281 294.943 17.5701 297.1C15.8489 297.911 14.2769 299.006 12.9201 300.34C7.54009 302.56 2.46009 306.53 0.920089 313.99C-0.329911 319.99 1.33007 328.23 9.74007 333.49L10.0401 333.67C12.8346 337.314 16.8135 339.867 21.2901 340.89L22.1301 341.32C23.8001 345.82 27.4501 351.06 35.3401 354.06C37.0341 356.073 39.098 357.743 41.4201 358.98C42.3941 361.988 43.7378 364.863 45.4201 367.54L45.8301 368.18C46.5342 369.242 47.3561 370.222 48.2801 371.1C50.1856 372.901 52.428 374.307 54.8785 375.239C57.3291 376.171 59.9395 376.61 62.5601 376.53C65.208 376.494 67.8452 376.186 70.4301 375.61C71.0301 375.67 71.6401 375.7 72.2501 375.7C75.0356 375.661 77.7741 374.977 80.2501 373.7C81.8319 374.007 83.4387 374.168 85.0501 374.18C87.9026 374.197 90.7223 373.571 93.3001 372.35C93.9908 372.322 94.679 372.248 95.3601 372.13L96.9501 371.86C97.7201 371.73 98.3901 371.6 98.9501 371.53C100.175 371.479 101.392 371.301 102.58 371C106.663 371.457 110.785 370.602 114.35 368.56C117.019 368.223 119.667 367.732 122.28 367.09C124.816 366.958 127.325 366.511 129.75 365.76C130.53 365.55 131.47 365.3 132.67 365.01C133.961 364.732 135.226 364.344 136.45 363.85C136.98 363.65 138.06 363.23 138.45 363.15C139.988 362.955 141.492 362.552 142.92 361.95C144.618 361.517 146.288 360.979 147.92 360.34C151.953 359.566 155.846 358.191 159.47 356.26C163.016 355.476 166.454 354.267 169.71 352.66C171.03 352.07 172.27 351.51 173.17 351.2C174.46 350.759 175.692 350.165 176.84 349.43C178.32 348.43 179.93 347.5 181.59 346.5L182.47 345.96C186.009 343.975 189.416 341.763 192.67 339.34C193.27 338.91 193.87 338.47 194.47 338.01C194.533 339.022 194.687 340.026 194.93 341.01C194.87 341.74 194.76 342.65 194.69 343.28C194.24 347.18 193.69 351.59 195.27 356.21C196.399 359.586 198.559 362.523 201.446 364.606C204.332 366.689 207.8 367.813 211.36 367.82C212.536 367.82 213.71 367.696 214.86 367.45C215.499 367.299 216.147 367.192 216.8 367.13C217.04 367.13 217.25 367.13 217.47 367.13C218.36 367.19 219.28 367.23 220.38 367.23C222.512 367.221 224.641 367.061 226.75 366.75L226.87 366.81C229.229 367.992 231.831 368.608 234.47 368.61H234.88C235.31 368.61 235.73 368.61 236.14 368.61C237.862 369.182 239.665 369.472 241.48 369.47C242.212 369.473 242.944 369.426 243.67 369.33C245.314 369.494 246.973 369.433 248.6 369.15C251.974 371.292 255.894 372.413 259.89 372.38C263.14 372.411 266.347 371.631 269.22 370.11V370.11C272.65 370.11 278.84 369.11 283.95 362.53C288.54 357.91 290.65 352.37 290.1 346.53C292.706 342.644 293.993 338.023 293.77 333.35C293.77 332.797 293.72 332.247 293.62 331.7C294.2 329.55 294.62 327.4 295.02 325.34C295.33 323.75 295.64 322.12 295.94 321.05C296.84 318.51 297.69 315.45 298.58 312.23C299.47 309.01 300.58 305.1 301.43 302.89L302.01 301.34C303.768 308.099 306.09 314.699 308.95 321.07C313.12 333.38 324.34 339.87 334.47 342.39C335.89 344 337.483 345.449 339.22 346.71C341.708 350.377 345.529 352.929 349.87 353.82C350.993 354.046 352.135 354.16 353.28 354.16C357.45 354.16 361.474 352.622 364.58 349.84C367.437 352.74 371.204 354.569 375.25 355.02C376.846 356.726 378.782 358.078 380.934 358.987C383.086 359.897 385.404 360.344 387.74 360.3C389.55 360.302 391.349 360.019 393.07 359.46C394.491 359.983 395.967 360.342 397.47 360.53C400.267 361.651 403.309 362.019 406.292 361.596C409.275 361.173 412.095 359.975 414.47 358.12C416.307 359.892 418.519 361.225 420.944 362.022C423.368 362.818 425.941 363.057 428.47 362.72C430.168 362.494 431.82 362.008 433.37 361.28L434.37 361.12C434.92 361.43 435.46 361.7 435.96 361.94C436.777 362.43 437.629 362.858 438.51 363.22L438.69 363.52C440.115 365.778 442.033 367.685 444.3 369.096C446.567 370.508 449.125 371.388 451.78 371.67C453.206 372.023 454.671 372.201 456.14 372.2C457.879 372.201 459.609 371.959 461.28 371.48C462.165 371.611 463.056 371.691 463.95 371.72C464.702 372.156 465.484 372.537 466.29 372.86C469.17 375.485 472.865 377.04 476.755 377.266C480.646 377.491 484.495 376.374 487.66 374.1C490.573 372.022 492.999 369.336 494.772 366.228C496.546 363.12 497.623 359.665 497.93 356.1C499.348 354.197 500.393 352.042 501.01 349.75C503.275 346.373 504.518 342.415 504.59 338.35C504.59 338.23 504.59 338.11 504.59 337.99C506.418 335.732 507.637 333.043 508.13 330.18C511.312 326.139 513.016 321.132 512.96 315.99C513.35 314.99 513.88 313.77 514.25 312.9C515.292 310.596 516.213 308.239 517.01 305.84C519.394 302.52 520.841 298.621 521.2 294.55C522.349 292.655 523.352 290.676 524.2 288.63H524.77C526.342 288.622 527.91 288.488 529.46 288.23C531.753 288.886 534.125 289.223 536.51 289.23C538.82 289.206 541.122 288.948 543.38 288.46C543.86 288.46 544.38 288.46 544.83 288.46C546.076 288.46 547.319 288.363 548.55 288.17C550.338 288.705 552.194 288.974 554.06 288.97C555.095 288.97 556.128 288.89 557.15 288.73C560.067 289.202 563.057 288.912 565.83 287.89C566.55 287.89 567.31 287.89 567.67 287.89H568.99C570.55 287.89 572.34 287.89 574.13 287.79C574.79 287.87 576.05 288.13 576.93 288.31C578.13 288.57 579.42 288.83 580.81 289.03C582.496 289.522 584.244 289.772 586 289.77H586.3C588.657 290.588 591.135 291.001 593.63 290.99C596.084 290.948 598.526 290.633 600.91 290.05C601.19 289.99 601.46 289.92 601.75 289.87C602.675 289.99 603.607 290.05 604.54 290.05C607.021 290.061 609.475 289.538 611.737 288.519C613.999 287.499 616.015 286.006 617.65 284.14C618.21 284.04 618.77 283.92 619.32 283.78C617.06 313.87 626.17 336.93 645.56 349.39C648.115 351.025 651.059 351.95 654.09 352.07C654.49 352.36 654.9 352.64 655.33 352.9C658.092 354.691 661.244 355.792 664.52 356.11C664.94 356.31 665.37 356.51 665.8 356.68C667.874 359.544 670.794 361.685 674.15 362.8C675.625 363.293 677.052 363.922 678.41 364.68C681.335 366.275 684.436 367.523 687.65 368.4C689.468 369.043 691.239 369.811 692.95 370.7C697.95 373.14 704.95 376.48 714.37 376.48H715.37C716.04 376.48 716.72 376.48 717.37 376.48C732.57 376.48 746.5 371.56 751.78 369.48C752.375 369.239 752.956 368.965 753.52 368.66L754.74 368L757.58 366.49C761.752 366.007 765.751 364.544 769.25 362.22C771.505 361.856 773.663 361.036 775.59 359.81C776.213 359.414 776.811 358.98 777.38 358.51C780.793 357.523 783.92 355.733 786.5 353.29C789.936 351.471 793.226 349.388 796.34 347.06C798.51 345.389 800.826 343.916 803.26 342.66C803.946 342.367 804.614 342.033 805.26 341.66C809.26 339.44 818.76 334.15 819.72 324.5C823.72 323.08 828.61 319.78 831.46 312.17C832.546 309.262 832.816 306.113 832.239 303.064C831.663 300.014 830.262 297.18 828.19 294.87C827.81 294.45 827.41 294.05 827 293.67C826.149 289.326 823.872 285.392 820.53 282.49C818.815 279.966 816.495 277.912 813.783 276.515C811.07 275.117 808.051 274.421 805 274.49C803.923 274.493 802.848 274.567 801.78 274.71C800.869 274.361 799.929 274.093 798.97 273.91C797.981 273.722 796.977 273.622 795.97 273.61C795.121 273.413 794.259 273.28 793.39 273.21C791.496 272.448 789.489 272.005 787.45 271.9C786.923 271.581 786.379 271.29 785.82 271.03C782.505 267.874 778.107 266.11 773.53 266.1H773.38C770.954 265.22 768.39 264.783 765.81 264.81C764.664 264.815 763.519 264.878 762.38 265C759.944 265.24 757.59 266.008 755.48 267.25L752.76 268.85C739.48 276.65 725.9 284.63 712.39 290.24C712.507 289.529 712.577 288.81 712.6 288.09C713.949 284.725 714.559 281.111 714.39 277.49C714.816 275.98 715.032 274.419 715.03 272.85C715.03 272.05 715.03 270.94 715.09 270.23C715.31 269.9 715.52 269.55 715.72 269.23C717.833 265.562 719.068 261.455 719.33 257.23C720.55 254.31 721.57 251.06 722.56 247.9C722.65 247.62 722.74 247.31 722.85 246.99C725.426 246.531 727.929 245.727 730.29 244.6C731.244 244.428 732.183 244.184 733.1 243.87C735.588 243.56 737.978 242.706 740.1 241.37C740.3 241.24 740.51 241.11 740.7 240.97C741.669 240.911 742.634 240.798 743.59 240.63C744.06 240.63 744.59 240.63 745.02 240.63C747.327 240.632 749.612 240.187 751.75 239.32C752.25 239.32 752.75 239.38 753.26 239.38C755.507 239.382 757.734 238.969 759.83 238.16C761.373 238.524 762.954 238.705 764.54 238.7C767.771 238.675 770.96 237.97 773.9 236.63C777.348 236.56 780.706 235.52 783.59 233.63C785.355 233.568 787.099 233.231 788.76 232.63C789.11 232.63 789.45 232.63 789.76 232.63C792.657 232.565 795.533 232.132 798.32 231.34L799.06 231.54C802.673 232.641 806.424 233.223 810.2 233.27C812.211 233.266 814.206 232.904 816.09 232.2C817.924 231.953 819.715 231.452 821.41 230.71C823.483 230.214 825.453 229.357 827.23 228.18C829.949 227.827 832.543 226.822 834.79 225.25C836.616 224.881 838.411 224.372 840.16 223.73C845.636 222.722 850.496 219.601 853.69 215.04L854.19 214.67C853.542 216.364 853.118 218.136 852.93 219.94C851.825 223.311 851.776 226.94 852.79 230.34C851.443 231.881 850.392 233.657 849.69 235.58C846.905 236.149 844.3 237.389 842.103 239.193C839.905 240.996 838.181 243.309 837.08 245.93C835.71 249.22 833.44 257.76 841.84 266.24C844.117 268.532 846.999 270.127 850.15 270.84C850.51 271.33 850.9 271.84 851.31 272.31C852.129 273.262 853.052 274.121 854.06 274.87C853.9 275.26 853.73 275.63 853.58 275.98C851.14 281.6 848.58 287.38 847.64 293.4C845.12 300.07 843.16 306.69 841.26 313.11C839.66 318.52 838.13 323.69 836.37 328.55C833.423 332.138 831.934 336.704 832.2 341.34C832.68 350.89 839.77 358.52 848.71 359.52C851.184 360.79 853.929 361.439 856.71 361.41C859.31 361.398 861.875 360.821 864.23 359.72C866.387 360.533 868.675 360.946 870.98 360.94H871.09C872.611 361.497 874.204 361.834 875.82 361.94L876.47 362.19C877.153 363.995 878.114 365.683 879.32 367.19C880.443 368.585 881.767 369.805 883.25 370.81C883.637 371.412 884.061 371.99 884.52 372.54C886.11 374.445 888.097 375.98 890.343 377.035C892.589 378.091 895.039 378.642 897.52 378.65C909.26 378.65 913.26 368.65 914.99 364.07C915.57 362.65 916.1 361.16 916.61 359.64C918.993 357.77 921.024 355.491 922.61 352.91C923.959 350.792 924.82 348.401 925.13 345.91C925.337 344.593 925.624 343.291 925.99 342.01C926.895 340.542 927.57 338.943 927.99 337.27C928.415 336.444 928.779 335.588 929.08 334.71C932.319 331.222 934.288 326.744 934.67 322C935.335 319.598 935.787 317.141 936.02 314.66C936.24 314.46 936.52 314.22 936.86 313.94C938.95 312.184 940.586 309.95 941.631 307.428C942.675 304.906 943.097 302.169 942.86 299.45C943.742 298.286 944.537 297.06 945.24 295.78C946.65 296.09 948.12 296.35 949.6 296.53C951.541 297.161 953.522 297.662 955.53 298.03C958.752 299.599 962.297 300.391 965.88 300.34H967.25C969.104 301.006 971.06 301.344 973.03 301.34H973.47C974.562 301.71 975.682 301.991 976.82 302.18L977.4 302.48C979.84 303.684 982.487 304.411 985.2 304.62C987.867 306.252 990.933 307.117 994.06 307.12H994.51L994.77 307.23C997.91 309.3 1002.33 310.77 1008.56 310.77H1009.42C1010.33 310.993 1011.26 311.14 1012.2 311.21C1012.95 311.403 1013.71 311.556 1014.48 311.67H1014.88C1015.84 312.018 1016.82 312.289 1017.82 312.48C1017.68 312.95 1017.53 313.4 1017.42 313.9C1016.17 319.9 1017.83 328.14 1026.24 333.4L1026.54 333.58C1029.33 337.225 1033.31 339.78 1037.79 340.8L1038.62 341.23C1040.3 345.73 1043.95 350.97 1051.85 353.97C1053.54 355.991 1055.6 357.665 1057.93 358.9C1058.91 361.886 1060.26 364.74 1061.93 367.4C1062.21 367.86 1062.55 368.4 1062.85 368.78L1063.13 369.14C1063.63 369.802 1064.19 370.421 1064.8 370.99C1066.71 372.797 1068.95 374.208 1071.41 375.144C1073.86 376.079 1076.47 376.52 1079.1 376.44C1081.74 376.404 1084.38 376.096 1086.96 375.52C1087.57 375.58 1088.18 375.61 1088.79 375.61C1091.58 375.571 1094.31 374.887 1096.79 373.61C1098.37 373.918 1099.97 374.078 1101.58 374.09C1104.44 374.108 1107.26 373.483 1109.84 372.26C1110.53 372.232 1111.22 372.158 1111.9 372.04L1113.49 371.77C1114.26 371.64 1114.94 371.51 1115.49 371.44C1116.72 371.389 1117.93 371.211 1119.12 370.91C1123.2 371.367 1127.33 370.512 1130.89 368.47C1133.56 368.133 1136.21 367.642 1138.82 367C1141.36 366.868 1143.86 366.421 1146.29 365.67C1147.07 365.46 1148.01 365.21 1149.21 364.92C1150.5 364.642 1151.77 364.254 1152.99 363.76C1153.52 363.56 1154.6 363.14 1154.99 363.06C1156.53 362.866 1158.04 362.463 1159.47 361.86C1161.17 361.426 1162.84 360.888 1164.47 360.25C1168.5 359.472 1172.39 358.096 1176.02 356.17C1179.57 355.386 1183 354.177 1186.26 352.57C1187.57 351.98 1188.81 351.42 1189.72 351.11C1191.01 350.671 1192.24 350.077 1193.39 349.34C1194.88 348.34 1196.5 347.4 1198.17 346.34L1199.02 345.83C1202.56 343.847 1205.97 341.636 1209.22 339.21C1210.42 338.35 1211.6 337.46 1212.8 336.5L1213.21 336.19C1213.69 335.8 1214.14 335.41 1214.59 335.02L1215.59 334.14C1231.59 320.54 1240.31 304.37 1241.45 286.06C1243.28 256.73 1224.51 233.06 1219.6 227.45C1219.2 226.88 1218.79 226.33 1218.35 225.77C1204.78 207.21 1184.53 196.88 1166.64 187.77C1162.24 185.53 1158.08 183.4 1154.03 181.19L1151.21 179.6C1148.39 178.02 1145.53 176.42 1142.8 174.77C1143.34 173.898 1143.81 172.985 1144.2 172.04C1146.75 170.95 1148.99 169.253 1150.74 167.097C1152.48 164.941 1153.67 162.391 1154.2 159.67C1154.88 158.81 1155.43 158.01 1155.85 157.4C1156.27 156.79 1156.7 156.15 1157.18 155.49C1157.41 155.38 1157.63 155.26 1157.85 155.14C1161.11 153.31 1163.85 150.61 1166.93 147.48L1168.09 146.33C1171.8 145.687 1175.2 143.822 1177.73 141.03C1178.18 140.561 1178.7 140.161 1179.26 139.84C1181.37 138.548 1183.25 136.908 1184.82 134.99C1189.12 133.873 1193.09 131.724 1196.38 128.73C1195.49 129.89 1194.6 131.057 1193.73 132.23L1193.42 132.65C1174.89 159.02 1197.77 187.87 1206.26 198.57C1209.99 203.39 1216.94 212.37 1227.82 212.37C1232.93 212.323 1237.83 210.31 1241.49 206.75C1243.95 205.473 1246.09 203.653 1247.74 201.429C1249.4 199.205 1250.52 196.634 1251.04 193.91L1251.25 193.68C1253.34 191.552 1255.25 189.261 1256.97 186.83C1261.1 182.63 1262.56 180.7 1264.41 177.25C1264.5 177.08 1264.59 176.9 1264.7 176.71C1271.22 174.29 1274.78 168.36 1276.7 165.16C1277 164.655 1277.28 164.134 1277.53 163.6C1280.11 161.436 1282.21 158.763 1283.7 155.75C1285.89 154.591 1287.79 152.968 1289.29 150.996C1290.78 149.023 1291.83 146.748 1292.35 144.33L1292.45 144.24C1295.4 141.581 1297.33 137.978 1297.91 134.05C1297.91 133.99 1297.91 133.94 1297.91 133.88C1298.63 132.61 1300.24 130.44 1301.27 129.06C1304.1 125.24 1307.27 120.94 1308.84 115.7C1309.55 113.968 1310.39 112.296 1311.37 110.7C1313.63 107.066 1315.36 103.134 1316.53 99.0199C1320.34 92.1299 1319.6 85.4699 1319.25 82.2699C1319.25 81.9899 1319.18 81.6599 1319.16 81.3799C1319.8 79.304 1320.03 77.1243 1319.85 74.9599C1319.93 74.3799 1320 73.7499 1320.05 73.0699C1320.97 68.4916 1320.53 63.746 1318.8 59.4099V59.4099ZM216.33 247.66C212.729 240.422 208.256 233.651 203.01 227.5C202.61 226.93 202.2 226.38 201.76 225.82C188.19 207.27 167.93 196.93 150.05 187.82C145.65 185.58 141.49 183.46 137.45 181.24L134.61 179.65C131.79 178.07 128.94 176.47 126.21 174.82C126.756 173.952 127.224 173.039 127.61 172.09C130.159 171 132.403 169.303 134.146 167.147C135.889 164.991 137.078 162.441 137.61 159.72C138.29 158.86 138.84 158.06 139.26 157.45C139.68 156.84 140.11 156.2 140.59 155.54C140.82 155.43 141.05 155.31 141.27 155.18C144.53 153.35 147.27 150.66 150.34 147.53L151.5 146.38C155.216 145.733 158.61 143.868 161.15 141.08C161.594 140.609 162.106 140.208 162.67 139.89C164.783 138.598 166.663 136.958 168.23 135.04C172.532 133.921 176.498 131.776 179.79 128.79C178.9 129.94 178.01 131.11 177.14 132.28L176.83 132.7C158.34 159.01 181.07 187.78 189.73 198.7C193.48 203.54 200.41 212.42 211.23 212.42C216.34 212.373 221.235 210.36 224.9 206.8C227.386 205.469 229.551 203.608 231.24 201.35C225.847 216.977 220.877 232.413 216.33 247.66ZM604.33 187.83C605.02 186.859 605.616 185.824 606.11 184.74C607.814 183.528 609.377 182.13 610.77 180.57C611.63 179.96 612.41 179.37 613.1 178.85C613.934 178.18 614.81 177.562 615.72 177C616.2 176.76 616.67 176.5 617.13 176.22C618.547 175.309 619.903 174.307 621.19 173.22C621.834 173.111 622.472 172.967 623.1 172.79C628.445 171.245 632.978 167.68 635.74 162.85C636.471 162.329 637.16 161.75 637.8 161.12L638.19 161.03C639.19 160.77 640.19 160.51 641.13 160.2C644.356 159.122 647.185 157.102 649.25 154.4C650.04 153.68 651.11 152.68 652.38 151.33C653.405 150.652 654.369 149.886 655.26 149.04C658.4 148.578 661.38 147.356 663.94 145.48C656.59 160.65 649.19 177.02 642.53 194.15C641.279 193.808 640.001 193.57 638.71 193.44C637.145 192.61 635.457 192.036 633.71 191.74C624.22 190.09 614.46 188.79 604.33 187.83V187.83ZM893.63 167.63L890.75 174.51C890.12 174.46 889.48 174.44 888.83 174.44C882.831 174.349 877.024 176.557 872.6 180.61C873.519 178.393 873.962 176.008 873.9 173.61C874.124 172.715 874.291 171.806 874.4 170.89L874.47 170.74C875.241 169.567 875.865 168.304 876.33 166.98C877.152 164.582 877.446 162.036 877.192 159.514C876.939 156.993 876.143 154.555 874.86 152.37C874.273 149.726 873.121 147.241 871.483 145.085C869.845 142.929 867.76 141.154 865.37 139.88C864.377 139.223 863.318 138.674 862.21 138.24C853.56 134.86 844.21 134.4 836.21 134.4C833.69 134.4 831.15 134.45 828.65 134.5C826.46 134.55 824.31 134.6 822.24 134.6H821.24C803.131 135.79 785.103 137.99 767.24 141.19C767.841 140.104 768.365 138.978 768.81 137.82C768.97 137.42 769.11 137.01 769.23 136.6C769.547 135.539 769.801 134.461 769.99 133.37C774.1 129.957 777.04 125.346 778.4 120.18C778.799 118.74 779.007 117.254 779.02 115.76C781.065 113.885 782.758 111.66 784.02 109.19C784.2 108.86 784.36 108.53 784.52 108.19H785.52C788.76 108.162 791.966 107.538 794.98 106.35C795.41 106.35 795.85 106.35 796.28 106.35C798.048 106.351 799.808 106.13 801.52 105.69C802.528 105.641 803.531 105.514 804.52 105.31C805.01 105.31 805.52 105.37 806.02 105.37C808.729 105.274 811.416 104.844 814.02 104.09C814.951 104.222 815.89 104.289 816.83 104.29C819.939 104.242 823.011 103.615 825.89 102.44H826.29C828.024 102.439 829.747 102.172 831.4 101.65C835.586 100.44 839.38 98.1504 842.4 95.0099L844.11 94.7198C845.387 94.9822 846.687 95.1129 847.99 95.1099C849.065 95.1067 850.138 95.0231 851.2 94.8599C854.153 95.6475 857.264 95.6164 860.2 94.7699C862.171 95.4397 864.239 95.7776 866.32 95.7699C870.514 95.6981 874.608 94.4809 878.16 92.2499L878.82 92.1699C880.344 92.5006 881.9 92.6649 883.46 92.6599C884.801 92.6518 886.138 92.5347 887.46 92.3099C889.836 93.3158 892.39 93.836 894.97 93.8399C896.596 93.8337 898.213 93.6117 899.78 93.1799C902.06 101.13 909.7 106.8 918.78 106.8H919.6C910.63 127.1 902 147.67 893.63 167.63V167.63ZM1041.7 206.71C1042.01 206.44 1042.37 206.15 1042.79 205.8C1043.93 204.8 1045.56 203.47 1047.72 201.49C1051.28 199.234 1054.36 196.31 1056.81 192.88C1057.64 191.73 1058.58 190.659 1059.61 189.68C1061.44 188.048 1063.19 186.319 1064.84 184.5C1065.98 197.43 1068.54 212.25 1074.02 224.29C1062.49 219.038 1050.55 214.734 1038.32 211.42C1039.51 210.241 1040.52 208.893 1041.32 207.42C1041.49 207.08 1041.61 206.86 1041.7 206.71V206.71ZM1002.82 134.4C1002.95 133.173 1002.95 131.936 1002.82 130.71C1003.47 129.376 1004.03 127.995 1004.48 126.58C1004.86 125.58 1005.25 124.58 1005.68 123.38C1007.01 122.38 1008.18 121.187 1009.16 119.84C1011.58 116.51 1015.39 111.27 1015.32 104.4C1016.78 101.927 1017.6 99.1289 1017.7 96.2599C1018.11 96.2599 1018.53 96.2599 1018.95 96.2599C1019.37 96.2599 1019.64 96.2599 1019.95 96.2599C1022.91 97.7738 1026.18 98.5848 1029.5 98.6299C1030.41 98.6324 1031.31 98.5689 1032.21 98.4399C1032.9 98.7999 1033.6 99.1998 1034.21 99.5298C1034.5 100.145 1034.84 100.739 1035.21 101.31C1035.68 104.53 1037.03 107.556 1039.12 110.05C1027.68 119.111 1015.54 127.253 1002.82 134.4V134.4ZM1082.76 285.56C1083.46 284.387 1084.03 283.14 1084.46 281.84C1084.69 281.113 1084.88 280.371 1085.01 279.62C1086.96 277.255 1088.52 274.595 1089.63 271.74C1093.32 268.568 1095.79 264.213 1096.63 259.42C1097.03 257.216 1096.98 254.956 1096.5 252.77C1099.02 254.77 1101.59 256.6 1104.15 258.35C1104.53 258.61 1104.91 258.86 1105.31 259.08C1108.16 260.71 1110.45 261.84 1112.31 262.75C1114.27 263.662 1116.15 264.712 1117.96 265.89C1118.42 266.202 1118.9 266.486 1119.39 266.74C1122.13 268.21 1124.92 269.53 1127.63 270.8L1130.63 272.23C1115.04 278.24 1098.88 282.26 1082.76 285.56Z" fill="white" stroke="#1D1D1B" stroke-miterlimit="10"/>
<path d="M188.24 236.07C174.24 216.69 150.3 207.62 129.24 196.07C119.75 190.7 109.44 185.34 102.02 177.5C104.9 171.32 106.55 172.14 110.27 166.78C113.57 165.54 110.68 164.72 114.39 161.42C113.98 158.12 118.93 157.29 120.99 156.42C121.82 151.06 117.28 155.59 123.46 149.42C123.05 152.72 128.46 140.76 132.99 140.34C136.66 138.28 147.43 124.26 148.63 129.62C152.75 125.08 156.05 125.08 154.81 123.43C155.68 117.66 165.12 120.96 169.25 115.18C178.84 109.116 188.77 103.607 198.99 98.6799C200.64 97.0299 206.82 90.0199 205.17 94.9699C208.47 92.4999 221.26 91.67 228.69 89.2C228.69 89.2 234.34 86.4699 233.55 89.8199C232.831 91.6126 231.56 93.1294 229.92 94.15C217.14 110.65 203.11 125.91 190.74 142.41C180.01 157.67 193.63 176.23 203.11 188.19C213.01 200.98 212.19 193.19 216.72 191.9C219.2 190.66 216.31 190.66 218.37 188.19C217.55 185.71 224.56 180.76 227.04 176.19C234.46 168.76 230.75 171.65 236.52 163.4C243.52 154.33 239.41 166.7 245.6 156.4C242.3 155.99 247.66 149.8 249.72 149.4C247.25 154.76 255.08 145.69 251.37 146.51C253.85 140.74 257.97 140.32 259.21 140.74C257.97 137.02 260.86 131.25 264.57 131.66C264.506 130.948 264.649 130.233 264.98 129.6C264.16 129.6 263.33 129.6 264.57 128.77L264.98 129.19C267.04 122.59 274.88 115.57 276.12 110.63C278.59 103.2 283.54 98.6299 283.96 92.4799C288.49 87.4799 283.96 82.9899 286.43 76.3899C285.19 76.7999 287.26 71.8499 286.43 70.6199C288.91 66.8999 282.72 61.5399 284.37 56.9999C288.49 53.7099 280.66 54.1199 283.54 46.6899C283.54 44.2199 281.48 40.5099 281.89 36.7899C276.89 36.7899 279.42 29.3699 275.29 27.3099C272.82 22.3599 272.41 23.1799 262.92 19.4699C260.337 17.8679 257.251 17.2801 254.26 17.8199C247.26 17.8199 238.17 20.7099 230.75 21.9499C184.55 33.9499 138.75 59.8899 102.43 94.95C85.5199 111.45 70.6699 131.66 66.1299 153.11C64.9144 156.651 64.2796 160.366 64.2499 164.11V164.11C64.2461 164.17 64.2461 164.23 64.2499 164.29C64.2499 165.1 64.2499 165.89 64.2499 166.64C64.3299 176.15 65.4599 210.19 77.2499 224.91C81.7899 233.16 89.2499 238.91 97.0499 244.29C102.82 247.59 105.71 248.42 110.66 251.72C116.85 255.02 124.27 257.91 130.04 261.62C134.17 262.07 139.98 266.2 144.89 268.26C158.55 273.17 131.69 281.42 125.1 285.95C93.3399 299.19 60.7499 303.73 28.9899 309.51C28.1699 314.41 21.9899 310.29 26.0999 314.04C34.7599 313.63 12.0999 314.87 18.6799 319.04C23.2199 317.8 21.1499 324.78 26.5199 324.4C29.3999 325.64 30.6399 327.7 33.1199 325.23C41.3599 328.12 37.6499 328.9 37.6499 333.89C38.0599 339.21 44.6499 338.43 46.7299 339.67C43.8399 340.08 47.5499 341.32 47.5499 340.08C47.5499 340.49 47.9599 340.9 47.9599 341.32C47.5599 341.72 47.6099 342.03 47.9599 342.32C48.3399 344.53 52.0799 344.77 52.8099 344.77C53.5399 344.77 58.0199 346.54 57.1899 349.88C56.4199 352.95 59.3799 357.88 59.8599 358.63C59.884 358.68 59.9142 358.727 59.9499 358.77V358.77C61.3899 360.56 68.1199 358.77 71.4799 357.83C73.1299 361.13 72.7199 353.71 74.7799 357.01C76.8499 356.18 78.4999 356.6 80.5599 356.6L80.8899 356.27H81.0799L81.3799 356.57C83.4499 356.98 85.0999 357.39 85.9199 356.98C88.8099 354.92 85.5099 354.5 92.5199 355.33C94.4281 354.937 96.3583 354.659 98.2999 354.5C104.48 351.2 102.83 356.57 107.78 352.44C110.67 351.62 115.21 351.62 120.16 349.97C122.63 350.38 123.87 349.55 129.23 348.32C129.64 348.32 132.98 346.67 136.23 346.25C136.23 345.84 141.59 345.02 142.83 343.78C146.54 343.78 151.91 341.31 153.97 339.66C157.72 340.07 162.67 336.77 167.62 335.08C169.62 333.83 171.71 332.54 173.92 331.19C176.954 329.506 179.871 327.619 182.65 325.54C183.71 324.78 184.74 323.99 185.74 323.19L186.02 322.97C186.49 322.6 186.89 322.22 187.34 321.85L187.91 321.37C232.14 283.95 189.63 237.99 189.61 237.97C189.25 237.41 188.88 236.81 188.24 236.07Z" fill="black"/>
<path d="M1303.14 70.68C1305.62 66.96 1299.43 61.6 1301.08 57.06C1305.2 53.77 1297.37 54.18 1300.25 46.75C1300.25 44.28 1298.19 40.57 1298.6 36.85C1293.6 36.85 1296.13 29.43 1292 27.37C1289.53 22.42 1289.12 23.24 1279.63 19.53C1277.05 17.9279 1273.96 17.3401 1270.97 17.88C1263.97 17.88 1254.88 20.77 1247.46 22.01C1201.26 34.01 1155.46 59.95 1119.14 95.01C1102.23 111.51 1087.38 131.72 1082.84 153.17C1081.62 156.711 1080.99 160.426 1080.96 164.17C1080.96 164.23 1080.96 164.29 1080.96 164.35C1080.96 165.16 1080.96 165.95 1080.96 166.7C1081.04 176.21 1082.17 210.25 1093.96 224.97C1098.5 233.22 1105.96 238.97 1113.76 244.35C1119.53 247.65 1122.42 248.48 1127.37 251.78C1133.56 255.08 1140.98 257.97 1146.75 261.68C1150.88 262.13 1156.69 266.26 1161.6 268.32C1175.26 273.23 1148.4 281.48 1141.81 286.01C1110.05 299.25 1077.46 303.79 1045.7 309.57C1044.88 314.47 1038.7 310.35 1042.81 314.1C1051.47 313.69 1028.81 314.93 1035.39 319.1C1039.93 317.86 1037.86 324.84 1043.22 324.46C1046.11 325.7 1047.35 327.76 1049.82 325.29C1058.07 328.18 1054.36 328.96 1054.36 333.95C1054.77 339.27 1061.36 338.49 1063.44 339.73C1060.55 340.14 1064.26 341.38 1064.26 340.14C1064.26 340.55 1064.67 340.96 1064.67 341.38C1064.27 341.78 1064.32 342.09 1064.67 342.38C1065.05 344.59 1068.79 344.83 1069.52 344.83C1070.25 344.83 1074.73 346.6 1073.89 349.94C1073.13 353.01 1076.09 357.94 1076.57 358.69C1076.59 358.74 1076.62 358.787 1076.66 358.83C1078.1 360.62 1084.83 358.83 1088.19 357.89C1089.84 361.19 1089.43 353.77 1091.49 357.07C1093.56 356.24 1095.21 356.66 1097.27 356.66L1097.6 356.33H1097.79L1098.09 356.63C1100.16 357.04 1101.81 357.45 1102.63 357.04C1105.52 354.98 1102.22 354.56 1109.23 355.39C1111.13 354.997 1113.06 354.72 1115 354.56C1121.19 351.26 1119.54 356.63 1124.49 352.5C1127.38 351.68 1131.92 351.68 1136.87 350.03C1139.34 350.44 1140.58 349.61 1145.94 348.38C1146.35 348.38 1149.69 346.73 1152.94 346.31C1152.94 345.9 1158.3 345.08 1159.54 343.84C1163.25 343.84 1168.62 341.37 1170.68 339.72C1174.43 340.13 1179.38 336.83 1184.33 335.14C1186.33 333.89 1188.42 332.6 1190.63 331.25C1193.66 329.568 1196.58 327.681 1199.35 325.6C1200.42 324.84 1201.45 324.05 1202.45 323.25L1202.73 323.03C1203.2 322.66 1203.6 322.28 1204.05 321.91L1204.62 321.43C1248.85 284.01 1206.34 238.05 1206.32 238.03C1205.96 237.48 1205.54 236.88 1204.95 236.14C1190.95 216.76 1167.01 207.69 1145.95 196.14C1136.46 190.77 1126.15 185.41 1118.73 177.57C1121.61 171.39 1123.26 172.21 1126.98 166.85C1130.28 165.61 1127.39 164.79 1131.1 161.49C1130.69 158.19 1135.64 157.36 1137.7 156.49C1138.53 151.13 1133.99 155.66 1140.17 149.49C1139.76 152.79 1145.17 140.83 1149.7 140.41C1153.37 138.35 1164.14 124.33 1165.34 129.69C1169.46 125.15 1172.76 125.15 1171.52 123.5C1172.39 117.73 1181.83 121.03 1185.96 115.25C1195.55 109.186 1205.48 103.677 1215.7 98.75C1217.35 97.1 1223.53 90.09 1221.88 95.04C1225.18 92.57 1237.97 91.74 1245.39 89.27C1245.39 89.27 1251.05 86.54 1250.26 89.89C1249.54 91.6827 1248.27 93.1994 1246.63 94.22C1233.85 110.72 1219.82 125.98 1207.45 142.48C1196.72 157.74 1210.34 176.3 1219.82 188.26C1229.72 201.05 1228.9 193.26 1233.43 191.97C1235.91 190.73 1233.02 190.73 1235.08 188.26C1234.26 185.78 1241.27 180.83 1243.75 176.26C1251.17 168.83 1247.46 171.72 1253.23 163.47C1260.23 154.4 1256.12 166.77 1262.31 156.47C1259.01 156.06 1264.37 149.87 1266.43 149.47C1263.96 154.83 1271.79 145.76 1268.08 146.58C1270.56 140.81 1274.68 140.39 1275.92 140.81C1274.68 137.09 1277.57 131.32 1281.28 131.73C1281.22 131.018 1281.36 130.303 1281.69 129.67C1280.87 129.67 1280.04 129.67 1281.28 128.84L1281.69 129.26C1283.75 122.66 1291.59 115.64 1292.83 110.7C1295.3 103.27 1300.25 98.7 1300.67 92.55C1305.2 87.55 1300.67 83.06 1303.14 76.46C1301.88 76.86 1303.96 71.91 1303.14 70.68Z" fill="black"/>
<path d="M429.95 240.61C434.9 222.88 441.95 205.55 447.69 187.82C447.27 187.82 449.33 183.69 450.16 181.63C453.87 179.98 450.16 176.27 451.81 177.09C453.46 171.73 452.22 173.38 453.87 171.32C453.87 170.91 453.87 170.91 454.28 170.49C454.28 170.08 454.28 170.08 454.7 169.67C454.33 170.04 454.94 170.08 455.07 169.21C455.07 169.26 454.9 169.26 454.7 169.26C457.17 165.96 459.23 170.08 457.58 163.89C455.93 157.7 462.12 158.89 460.88 151.11C463.77 145.75 463.77 140.8 467.07 136.26C467.07 132.13 470.37 132.13 469.96 129.26C469.96 120.18 479.44 120.59 475.32 115.64C478.62 114.41 479.86 112.76 477.8 113.17C481.51 111.11 476.56 106.17 483.16 102.86C480.27 99.9699 481.51 98.3199 484.81 95.8599C491.41 93.3799 487.28 88.8599 486.46 87.6099C487.28 87.6099 491.41 84.3099 490.99 82.2399C491.82 78.5299 490.58 75.2399 494.29 68.6299C500.03 60.8799 492.35 66.86 495.49 60.14C495.479 60.0839 495.479 60.026 495.49 59.9699C495.86 58.6899 497.92 50.7299 495.08 54.6099C493.84 53.3699 495.08 45.1199 490.95 42.6099C491.78 38.8999 484.35 43.43 485.59 36.83C482.29 36.01 482.29 31.8799 481.47 31.8799C479.4 31.0599 478.58 24.4599 481.05 25.2799C483.53 18.6899 478.17 20.7499 477.34 21.9899C475.28 17.8599 474.04 26.9299 472.34 19.5099C468.63 17.0399 464.09 24.8699 466.16 18.6899C459.16 24.4599 454.61 33.1199 450.07 41.7799C424.5 87.9799 400.99 135 383.25 183.26C381.6 192.33 379.13 192.75 380.78 181.2C380.36 163.87 384.07 144.9 384.49 127.58C386.55 121.39 384.07 119.74 386.96 116.03C386.96 109.84 381.19 113.14 386.55 109.84C389.85 104.89 384.9 102.84 386.14 102.42C384.07 96.6399 386.55 92.5199 389.03 92.9299C384.49 89.6299 386.55 84.6799 389.03 80.5599C389.44 81.7899 392.32 83.0299 389.44 79.3199C390.26 77.2599 391.5 75.1899 391.5 73.5399C391.5 70.2399 388.61 71.8899 389.85 66.5399C389.44 66.1299 389.44 65.72 389.03 64.89C389.44 65.3 389.85 64.8899 389.44 64.4799H389.03C388.2 61.1799 390.67 54.5799 388.2 48.8099C388.2 45.9199 387.37 42.6199 385.73 40.9699C386.14 40.9699 386.14 40.56 385.73 40.14C385.731 40.1955 385.721 40.2507 385.701 40.3022C385.68 40.3538 385.649 40.4007 385.61 40.44C385.571 40.4793 385.524 40.5101 385.472 40.5308C385.421 40.5514 385.366 40.5613 385.31 40.5599C384.07 39.3199 382.43 39.73 380.78 42.21C379.13 36.43 378.3 31.89 375 38.08C371.29 34.78 377.06 33.5399 372.94 31.4799C374.59 27.7699 363.45 38.9099 365.94 32.7199C365.11 31.8899 365.52 21.1699 360.16 26.9399C358.88 24.0599 354.39 15.8099 352.7 21.9999C348.57 26.9399 350.26 14.5699 348.2 20.7599C348.2 23.6399 343.62 17.46 341.2 17.46C337.07 18.7 335.84 21.1699 332.5 19.9299C329.65 24.4699 329.65 14.1599 327.59 24.9299C318.06 35.2399 313.52 50.0899 306.51 62.4699C264.44 151.97 230.2 243.99 211.23 336.8C212.88 339.69 210.41 348.35 211.23 350.8C219.07 349.15 217.42 351.21 226.49 349.56C228.14 342.14 233.09 344.2 232.27 349.56C232.728 350.445 233.447 351.167 234.33 351.63C234.329 351.575 234.338 351.521 234.358 351.47C234.378 351.419 234.408 351.373 234.447 351.333C234.485 351.294 234.53 351.263 234.581 351.242C234.631 351.221 234.685 351.21 234.74 351.21C235.15 351.21 235.15 351.63 234.74 351.63C236.8 351.63 238.87 349.56 240.52 351.21H240.93C241.34 351.21 241.34 351.63 240.93 352.04L241.34 352.45C243.4 348.33 244.23 355.34 247.53 350.8C250.83 354.93 249.59 346.68 252.48 350.8C253.3 356.58 258.25 345.44 258.25 352.86C254.13 355.34 263.2 356.58 261.14 353.69C261.14 349.15 262.79 347.5 265.26 352.45C268.56 344.2 266.91 357.81 271.04 351.21C275.99 347.09 270.21 347.09 273.1 342.14C268.56 342.55 280.94 336.37 275.16 331.42C277.64 328.9 278.05 321.1 279.7 315.74C281.35 311.2 283.41 302.09 285.47 296.74C285.47 296.74 289.6 285.97 288.77 283.91C292.49 280.2 289.6 279.37 292.49 276.91C290.84 272.79 294.96 265.73 296.2 264.12C296.183 261.273 296.744 258.453 297.85 255.83C300.74 250.83 301.15 248.04 302.85 242.22C304.09 236.45 307.39 222.01 311.51 218.71C312.75 251.71 311.51 286.36 324.75 314.86C327.64 325.17 342.9 327.23 345.75 326.41C345.38 333.83 353.63 333.41 353.22 337.09C354.46 332.96 361.47 332.59 363.12 326.78C362.71 332.18 367.24 328.06 368.48 332.18C373.02 331.36 374.26 338.78 376.32 335.03C375.49 342.03 380.86 334.66 384.98 334.24C387.45 336.31 376.73 337.96 385.81 337.96C387.45 347.86 389.93 341.67 386.22 336.72C389.52 330.12 388.69 343.72 391.17 336.31C394.47 332.18 392.82 338.78 395.7 333.42C399.42 336.31 395.29 347.03 401.89 342.49C406.02 348.68 403.54 340.02 402.3 338.78C402.3 338.37 405.19 333.42 406.84 330.53C404.37 328.06 408.49 327.64 406.84 324.34C408.49 320.59 408.49 316.09 409.32 312.75C410.97 306.15 413.85 294.19 415.5 290.52C415.92 288.01 418.39 279.76 418.8 276.52C419.21 275.65 419.63 274.46 420.04 273.59C419.63 273.59 418.8 273.59 420.04 272.81V273.18C423.76 262.56 426.24 251.75 429.95 240.61Z" fill="black"/>
<path d="M636.6 247.21C634.53 248.86 635.36 244.74 630.41 245.15C631.23 243.5 638.24 239.83 633.71 237.31C635.36 231.95 641.13 234.84 641.54 229.06C636.18 224.06 643.61 225.76 639.48 221.64C641.96 219.16 639.48 217.51 639.89 215.45C638.66 212.98 637.01 214.21 639.48 211.74C638.24 208.85 634.48 211.74 630.82 208.44C606.9 204.32 582.15 202.67 556.58 202.67C557.4 196.89 558.23 202.67 561.53 197.67C563.59 196.02 565.65 194.37 567.71 193.95C569.36 191.07 573.49 190.65 574.71 188.95C577.59 187.72 579.24 184.83 580.89 182.77C580.48 182.77 580.07 182.35 580.48 182.35H580.88C581.71 181.53 582.12 180.7 582.94 180.29C582.94 179.47 587.48 177.82 588.72 177.4V177.82C588.717 177.765 588.726 177.71 588.745 177.659C588.765 177.607 588.795 177.56 588.833 177.521C588.872 177.481 588.918 177.45 588.969 177.429C589.02 177.409 589.075 177.399 589.13 177.4C589.54 177.82 589.54 177.82 589.13 177.82C591.07 179.76 591.56 174.02 590.57 174.02C593.42 172.41 597.01 171.14 599.03 167.92C602.33 165.86 604.8 163.38 608.1 161.73C611.4 159.67 617.59 152.66 618.42 156.37C621.3 155.54 621.72 152.24 622.95 150.59C623.37 150.59 624.19 150.59 623.37 150.18C623.649 149.787 624.02 149.468 624.45 149.252C624.881 149.036 625.358 148.929 625.84 148.94C629.97 144.82 633.27 144.82 635.74 143.94C636.15 142.71 638.21 141.88 641.93 137.35C644.81 137.35 645.64 131.16 651 130.35C651.83 134.07 655.13 131.18 656.36 128.7C653.89 125.82 663.79 130.35 660.9 124.58C661.063 124.424 661.259 124.306 661.474 124.235C661.688 124.164 661.916 124.142 662.14 124.17H662.55C663.79 124.99 664.2 127.47 670.39 121.28C669.15 122.52 668.32 122.93 667.91 122.93C667.91 122.52 667.91 122.52 667.09 122.52C665.02 121.69 665.02 117.52 667.5 120.87C674.92 120.87 680.29 116.74 673.27 115.09C673.69 115.09 673.69 115.09 673.69 114.68C672.86 114.68 672.86 115.09 673.69 114.68C677.81 107.26 680.69 109.32 682.76 103.54C681.94 100.24 676.57 96.1202 680.29 94.0602C683.59 89.0602 675.75 88.2803 681.94 84.5703C686.47 83.3303 684 82.9203 680.7 80.4503C679.54 79.8703 678.18 75.8302 678.18 75.5002C678.571 76.14 678.864 76.8342 679.05 77.5602C679.46 74.2602 682.76 68.0702 679.87 68.4802C684 65.6002 679.46 65.1802 681.11 63.1202C688.54 65.6002 686.11 58.5803 679.87 58.5803C679.87 53.2203 676.16 57.3503 674.1 55.7003C669.1 54.0503 669.97 53.2203 661.72 56.5203C634.09 70.9603 608.93 92.8202 584.18 111.38C576.34 118.8 578.82 113.44 582.53 109.73C583.36 107.26 584.18 103.13 587.89 101.48C585.01 101.48 587.48 93.2303 591.19 91.5803C592.43 94.8803 592.02 80.4502 596.55 77.9702C597.38 74.2602 594.91 76.3202 598.62 72.6102C602.33 67.6602 592.43 77.1502 598.62 67.2502C601.92 60.2502 600.27 53.6403 601.92 47.4503C597.79 50.3403 594.92 45.3902 595.32 43.7402C593.26 40.8502 592.02 44.1502 590.32 39.6102C594.44 34.2502 586.19 40.0203 584.96 33.8403C586.61 24.3503 579.59 33.8403 580.83 27.6503C583.31 21.4603 577.53 24.7602 575.06 20.2202C570.52 23.1102 572.99 21.4602 570.52 18.9902C564.33 22.7002 564.33 20.6403 560.21 24.7603C549.9 31.7603 547.42 52.4002 539.59 64.3602C518.96 109.73 496.28 154.28 475.24 199.65C467.36 209.55 454.62 205.01 444.31 205.83C443.03 210.83 435.19 213.67 440.14 216.15C436.84 224.4 441.38 219.03 443.85 223.15C443.44 225.62 446.74 230.57 439.31 232.22C433.54 235.11 443.03 235.56 434.78 237.63C434.37 241.75 434.78 244.18 435.6 245.01C430.24 248.31 438.08 252.06 435.6 254.12C436.01 256.97 435.6 260.31 436.84 262.37C431.07 263.16 440.96 266.09 437.25 268.93C435.6 273.47 438.49 273.06 430.65 274.34C431.48 278.46 433.95 271.82 434.78 275.94C436.43 277.18 438.9 279.24 439.73 276.4C442.24 277.18 447.56 275.12 444.31 277.18C443.03 287.49 435.19 301.18 431.48 312.65C429.42 321.77 421.17 332.86 424.88 339.92C431.07 339.51 422.82 342.39 426.12 345.69C427.77 342.81 429.42 340.69 429.42 344.46C433.95 344.04 435.19 342.81 440.14 341.98C442.24 345.69 439.73 344.87 444.31 346.98C445.91 348.63 451.31 346.57 449.63 348.22C453.26 350.22 453.71 346.77 454.12 350.36C453.34 352.05 451.32 355.64 454.99 354.36C457.05 357.66 462.41 347.36 463.24 354.36C466.12 355.6 477.3 350.65 471.49 355.19C472.77 359.73 474.37 354.36 476.89 351.48C471.89 359.73 482.25 354.78 477.67 360.14C482.25 356.84 480.19 352.71 482.25 348.59C483.08 345.7 485.55 346.94 484.31 341.99C487.2 341.99 489.31 334.57 485.55 339.52C486.38 335.39 489.26 328.38 491.33 327.14C485.96 324.63 496.69 321.37 495.86 315.59C494.63 312.66 501.23 301.94 501.23 298.23C507.41 291.23 501.64 292.04 504.94 287.13C507.41 287.5 510.3 275.13 513.19 271C519.37 271.83 515.25 274.35 521.85 270.63C524.74 273.07 530.51 269.36 532.99 271.42C536.29 272.7 538.76 271.83 542.88 271C546.18 272.28 549.07 269.36 552.37 271C554.43 273.89 558.56 268.16 559.8 271.83C561.03 270.22 568.46 271 573.8 270.63C578.8 270.63 584.11 273.07 586.17 271.83C581.64 274.35 597.72 269.77 591.54 273.48C594.42 274.76 598.54 272.28 602.67 272.7C609.67 273.89 596.07 269.77 601.85 268.94C607.62 271.42 610.51 267.29 609.68 266.88C610.963 267.338 612.332 267.506 613.688 267.371C615.043 267.236 616.352 266.802 617.52 266.1C622.06 267.29 624.52 260.32 627.01 258.26C631.54 256.57 625.77 250.01 630.31 255.33C631.23 254.26 640.31 250.56 636.6 247.21Z" fill="#BA0000"/>
<path d="M848.19 192.77C852.73 191.94 850.66 190.29 847.78 188.23C845.72 189.05 845.3 188.64 846.13 188.23C845.72 188.64 846.95 188.64 846.54 188.23C848.19 186.99 851.9 185.34 851.9 184.52C857.68 188.64 852.31 181.63 851.08 178.74C853.55 171.32 852.73 176.68 853.96 179.15C853.55 177.09 860.15 172.97 854.79 173.79C853.96 170.49 855.2 169.26 856.85 170.91C859.74 165.54 852.73 166.78 859.33 163.07C853.96 160.59 864.33 163.89 858.5 158.94C858.91 153.17 856.03 155.23 856.03 153.94C846.54 150.23 833.34 151.47 822.2 151.47C793.74 153.12 764.87 158.47 736.41 164.26C736.382 164.036 736.404 163.808 736.475 163.594C736.546 163.379 736.664 163.183 736.82 163.02C738.89 158.89 738.89 153.12 739.3 153.12C745.07 153.53 742.19 148.12 741.77 148.12C743.01 148.53 743.84 146.88 744.66 145.23C744.66 145.6 745.28 145.65 745.16 145.07C745.326 144.465 745.627 143.906 746.041 143.434C746.455 142.963 746.971 142.592 747.55 142.35C743.84 140.28 750.85 136.98 752.91 131.62C754.15 127.5 752.09 126.26 754.97 124.2C752.91 121.31 759.97 122.96 761.97 115.53C759.09 112.24 762.8 111.82 761.97 109.35C764.45 104.81 764.86 107.7 765.69 103.99C768.57 95.7401 765.69 107.29 768.99 101.1C768.57 97.3901 771.05 91.6101 773.52 94.1001C778.47 92.8601 774.35 87.9101 779.3 88.3201C783.01 92.4501 778.06 80.0701 783.84 85.0201C782.6 85.4301 780.54 86.6701 784.25 89.1501C780.54 92.8601 794.15 91.2101 791.25 85.8501C792.49 85.8501 794.14 91.6201 799.09 88.3201C804.09 90.3801 802.39 82.9601 806.92 86.2601C800.74 90.8001 813.52 86.6701 814.76 85.8501C816.41 90.8501 827.55 80.8501 826.31 85.4301C834.15 82.9601 829.61 78.8401 824.25 79.6601H823.88C823.677 79.6402 823.473 79.6402 823.27 79.6601C829.58 75.8701 834.65 81.1901 835.85 78.8001C839.15 78.3801 842.85 77.5601 846.57 77.1501C847.81 80.4501 856.06 73.4301 855.64 78.3801C860.64 75.9101 857.71 76.3201 861.01 75.5001C864.72 74.6701 866.37 75.5001 869.67 74.2601C862.67 77.5601 865.13 80.4501 869.67 77.5601C871.32 73.8501 875.03 76.7301 880.39 74.2601C883.28 77.1501 886.17 74.6701 890.7 74.2601C890.29 72.6101 894.83 79.6201 896.89 75.5001C895.24 74.6701 894.83 66.4201 902.25 68.9001C905.55 65.1801 905.14 64.7701 907.62 61.9001C910.5 57.3701 905.14 56.9001 905.55 52.4201C906.79 51.1801 909.26 52.0101 908.85 46.6401C908.85 46.6401 914.21 40.8701 913.39 40.8701C918.39 37.9801 919.16 34.6801 917.1 33.4401C922.88 33.0301 918.75 30.9701 919.16 29.3201C917.93 28.0801 915.04 22.7201 912.98 26.0201C909.68 26.4301 910.09 18.1801 903.49 22.7201C900.19 18.1801 883.69 20.2401 874.21 19.8301C844.09 20.2401 813.57 22.3101 782.64 29.7301C778.51 28.9101 776.45 23.9601 776.04 22.3101C774.39 21.9001 774.39 18.6001 769.04 18.6001H767.8C764.09 18.6001 762.8 24.3701 759.55 21.4801C762.02 20.6601 755.01 21.9001 754.19 27.2601C750.48 44.1701 728.19 37.9801 707.19 43.3401C712.19 44.9901 702.65 42.9301 702.19 46.2301C699.71 45.4101 705.45 58.6001 705.07 53.2301C708.79 54.4701 711.26 55.7101 707.14 56.1201C709.2 59.8301 711.26 54.8801 711.67 59.4201C710.85 60.6601 709.61 65.6101 704.25 64.3701C703.38 67.6701 700.12 68.0801 703.01 72.6201C701.32 73.4401 702.19 77.1601 697.65 76.3301C690.18 79.2201 703.01 82.1001 693.07 82.1001C693.94 87.1001 704.25 84.5801 700.54 87.1001C697.2 89.9901 695.13 97.4201 700.12 94.9401C699.71 101.54 703.84 99.4801 702.6 105.67C704.66 108.14 693.52 122.99 690.18 130.83C666.26 177.43 644.81 226.11 637.39 274.83C633.68 297.88 636.15 323.09 654.71 335.01H657.6C657.6 334.64 657.6 334.64 658.42 334.22C658.88 334.64 658.88 335.01 658.42 335.01C659.578 335.073 660.705 335.409 661.709 335.989C662.714 336.57 663.567 337.378 664.2 338.35C669.56 341.65 663.37 332.57 670.39 339.13C674.14 344.13 670.8 335.87 676.57 340.41C678.26 340 684.82 347.84 679.5 346.6C685.69 348.66 687.34 350.72 692.25 351.96C700.54 354.43 705.9 359.8 715.39 359.38C725.7 359.8 737.25 356.91 745.5 353.61C750.86 350.72 753.75 349.07 754.98 349.48C759.52 349.9 763.23 344.12 766.53 345.36C766.94 340.41 773.13 344.95 776.02 339.13C782.2 337.52 789.63 329.69 797.02 326.76C803.62 323.09 804.86 321.02 799.09 323.09C797.44 325.56 790.84 328.09 788.36 330.88C785.06 330.1 781.76 335.46 783 328.45C779.29 329.69 773.51 334.22 770.63 334.22C766.91 335.01 775.99 330.88 778.46 329.69C781.35 325.97 787.95 324.69 793.31 320.57C799.5 319.37 801.97 314.38 802.8 312.73C798.26 316.07 803.62 307.41 806.51 307.83C801.15 309.89 807.34 314.01 808.16 308.2C812.29 302.88 813.16 312.73 815.59 306.13C810.59 307.41 813.52 301.23 811.46 302.01C808.16 302.01 813.94 294.63 806.1 294.17C809.4 287.57 796.2 295.45 795.79 290.5C795.37 291.33 795.37 291.33 795.37 291.7C796.2 292.11 794.96 292.56 794.96 292.11C792.07 297.11 795.79 290.91 792.07 290.05C790.01 293.76 784.24 293.76 787.95 290.05C786.71 285.92 780.95 293.39 777.64 289.64C772.28 290.91 783.83 284.27 775.58 286.79C774.34 284.73 774.75 281.39 771.86 283.86C767.33 282.21 768.15 281.39 764.03 281.8C742.17 294.63 719.03 308.61 695.1 313.19C692.67 310.26 695.56 311.95 693.49 308.19C691.85 301.63 695.97 310.25 694.73 301.19C694.308 299.149 694.034 297.08 693.91 295C694.32 295.78 696.79 294.59 693.91 293.35V293.72C693.758 293.245 693.716 292.742 693.787 292.248C693.858 291.754 694.04 291.283 694.32 290.87C698.44 281.76 690.98 295 694.32 283.82C700.51 280.98 695.1 273.1 698.03 272.73C698.03 268.97 698.03 264.48 700.92 260.73C704.63 254.17 699.68 250.42 703.35 251.25C706.65 243.9 709.54 227.53 713.62 230.58C713.62 230.38 723.32 231.58 725.62 226.5C728.5 230.62 728.09 223.2 730.98 226.91C730.15 225.26 735.1 225.67 736.75 223.61C739.64 224.44 742.12 223.61 744.59 222.37C742.94 224.02 747.07 224.02 745 222.37C747.211 221.449 749.636 221.165 752 221.55C753.65 221.55 751.17 224.02 757.36 220.31C762.72 215.77 760.24 224.44 767.67 220.72C760.24 217.42 777.16 217.01 772.21 219.07C775.92 221.55 773.86 214.54 777.98 217.01C779.63 216.19 780.46 216.19 782.98 216.6C786.69 214.95 791.23 216.19 794.53 214.54C800.72 212.89 804.02 216.19 810.2 216.19C812.68 212.06 811.44 217.84 816.8 213.71C818.04 215.77 820.51 208.71 825.05 211.24C822.16 207.94 836.6 210 836.6 205.46C836.19 209.59 842.79 203.4 839.49 202.99C837.43 207.53 837.01 200.1 842.38 201.75C845.26 201.34 850.62 194.33 846.09 196.8C847.36 192.77 839.94 196.48 848.19 192.77ZM786.73 83.8801C790.44 84.2901 788.38 86.7601 785.91 84.7001C785.88 84.2901 786.73 84.2901 786.73 83.8801Z" fill="black"/>
<path d="M1039.16 294.69C1044.94 296.3 1045.35 295.51 1051.54 295.88C1051.54 288.05 1054.01 290.56 1056.07 288.5C1054.42 284.79 1061.85 280.66 1059.37 284.33C1063.08 280.21 1062.67 279.01 1065.97 281.86C1060.61 276.95 1070.1 278.6 1068.03 275.67C1068.45 271.55 1059.78 276.54 1069.68 270.76C1073.81 268.29 1075.05 262.51 1074.68 260.82C1074.68 258.76 1079.22 260.82 1080.05 256.33C1074.68 258.39 1083.76 246.8 1076.75 252.99C1073.45 254.26 1077.98 249.27 1074.68 248.45C1079.22 248.45 1074.27 242.26 1068.91 240.61C1047.05 229.89 1022.3 224.94 998.38 218.34C995.9 214.21 1004.15 212.15 1009.93 209.26C1014.46 203.08 1019.83 210.91 1018.18 203.08C1023.18 195.65 1025.6 198.95 1026.43 199.37C1029.31 194 1030.14 194.83 1037.56 187.82C1042.92 184.93 1042.51 182.45 1048.29 177.09C1054.47 171.73 1061.07 162.24 1066.85 154.82C1071.38 146.57 1079.63 145.33 1081.7 134.61C1083.35 131.31 1085.82 125.53 1086.23 122.23C1087.88 122.23 1089.12 118.93 1091.23 117.28C1091.39 117.118 1091.5 116.924 1091.57 116.711C1091.64 116.498 1091.67 116.273 1091.64 116.05C1091.64 116.46 1090 116.05 1091.23 115.63L1091.64 116.05C1093.3 110.69 1097.01 106.97 1098.24 101.61C1102.37 96.6599 1102.37 86.35 1104.43 84.7C1104.43 80.99 1104.02 73.1499 1104.43 69.0299C1104.43 68.1999 1104.43 67.79 1104.84 67.38C1103.19 64.49 1104.02 58.71 1102.37 59.95C1092.88 32.73 1062.37 22.83 1033.9 19.95C1026.23 19.1202 1018.52 18.7096 1010.8 18.7199C986.472 18.7985 962.236 21.7047 938.58 27.38C934.04 27.38 929.92 31.91 929.09 32.38C925.79 39.38 939.44 34.03 938.17 40.21C941.05 38.56 937.75 46.3999 934.45 49.2899C931.15 49.6999 924.14 50.9399 926.62 55.4699C924.97 60.4199 927.85 59.5999 922.49 61.6599C922.9 65.7899 925.79 62.8999 924.14 67.4399C924.97 71.5599 917.54 72.7999 924.56 73.6199C922.9 77.7499 929.92 77.34 926.2 79.4C928.2 81.79 926.74 83.0299 924.76 83.8499C925.09 83.6499 925.3 82.8499 924.97 81.8499C920.84 82.6799 922.9 84.3299 924.14 83.9199C922.49 84.7399 920.84 85.5599 920.84 85.9799C910.53 88.0399 920.84 92.16 920.84 88.45C924.97 91.75 931.57 83.45 931.98 87.63C930.74 90.51 938.17 91.75 941.51 88.45C949.76 78.97 942.7 100.83 938.58 106.6C925.38 135.47 913.42 164.76 901.04 194.04C892.79 192.39 885.37 187.86 881.66 196.93C879.18 200.23 881.66 200.64 879.18 202.29C877.53 198.99 875.06 201.47 873 205.18C878.36 206 875.47 206 875.06 209.3C876.71 213.84 883.72 206 880.42 212.19C884.96 213.43 877.53 212.19 875.42 216.32C876.25 220.44 875.42 219.62 871.71 219.2C869.23 220.44 869.65 222.92 870.06 225.39C869.65 225.39 869.65 224.98 869.23 224.98C868.82 225.8 869.65 225.8 870.06 225.8V227.04C870.06 232.82 870.47 234.88 869.23 236.53C873.36 240.24 863.87 240.24 865.93 242.3C865.93 242.71 868.82 246.84 866.35 248.12C870.88 253.03 863.05 246.06 861.81 251.38C859.34 254.3 849.44 249.73 853.97 254.3C857.69 254.68 865.11 255.09 865.52 257.15C869.23 256.37 877.9 257.56 876.66 260.04C873.77 260.49 859.34 255.5 864.28 261.28C868 261.69 869.65 262.55 872.53 262.55C878.72 269.11 865.11 286.89 864.28 297.61C858.92 311.22 856.04 325.61 850.67 338.86C846.96 339.23 851.5 346.7 852.32 339.69C853.56 335.97 856.04 349.17 858.1 342.57C860.99 343.4 863.87 339.23 865.1 340.1C865.51 336.39 874.59 335.56 869.22 341.75C869.64 346.7 874.22 341.34 877.06 345.05C882.01 342.99 881.6 350.05 885.31 343.4C887.37 346.28 886.14 349.17 890.26 344.22C889.02 353.71 895.62 340.1 895.62 347.11C901.4 351.23 891.5 351.23 892.73 351.65C891.09 359.07 893.97 357.01 897.27 355.36C900.98 349.58 894.8 369.8 899.33 357.83C901.4 352.83 903.46 344.22 905.11 342.16C905.52 339.69 908.41 331.85 910.47 327.72C909.65 333.5 909.23 335.11 906.35 341.34C904.7 346.28 905.52 348.34 908.41 343.81C908.82 340.51 910.47 333.91 911.71 333.04C910.88 330.98 914.18 329.79 912.95 328.14C913.77 324.01 918.31 324.42 917.95 319.47C918.89 316.517 919.444 313.455 919.6 310.36C920.83 306.65 921.25 305.04 926.19 300.91C925.78 296.79 923.72 294.27 926.61 291.01C927.84 293.49 935.68 281.12 929.49 282.77C928.26 272.87 937.37 276.99 942.69 277.36C943.93 277.77 949.75 279.84 953.87 279.84C955.07 280.7 959.19 281.49 962.12 281.9C965.01 285.24 970.78 281.49 973.26 284.37C977.38 282.77 978.26 286.44 981.88 285.24C977.75 281.49 984.81 286.44 985.22 287.3C987.69 288.54 992.64 286.44 994.29 290.15C998.83 290.15 1000.07 291.01 1004.19 292.66C1004.6 294.73 1013.27 293.08 1013.68 294.27C1015.99 294.27 1012.36 292.5 1011.45 291.96C1011.86 292.05 1012.77 292.42 1014.45 293.08C1025.18 294.73 1009.92 294.27 1019.82 295.14C1022.7 297.61 1024.77 293.08 1019.82 293.08C1015.28 292.66 1016.52 288.54 1020.23 291.01C1022.29 291.43 1025.59 291.01 1026 292.66C1024.77 295.14 1028.89 293.49 1030.13 295.55C1032.6 292.66 1035.13 299.26 1028.07 298.85C1032.56 302.07 1037.1 292.62 1039.16 294.69ZM926.1 71.09C926.709 71.3186 927.363 71.4005 928.009 71.3293C928.655 71.2581 929.275 71.0356 929.82 70.6799C931.88 72.7399 923.22 75.63 926.1 71.09V71.09ZM938.48 85.5599C936 84.7399 940.13 83.0899 943.02 81.8499C942.6 81.8499 942.6 81.8499 943.47 81.4399V81.8499C943.777 81.7962 944.062 81.6537 944.29 81.4399C948.42 86.7599 940.13 81.8099 938.48 85.5599ZM967.8 169.71C968.729 167.56 969.832 165.489 971.1 163.52C971.1 163.93 973.54 163.93 972.76 162.28C972.47 162.57 971.97 162.65 971.68 162.82C972.744 161.431 973.529 159.848 973.99 158.16C974.4 158.16 975.23 157.75 974.4 157.33V156.06C976.05 151.93 983.48 153.58 977.66 148.22C979.647 146.711 981.222 144.727 982.24 142.45C982.24 142.86 983.07 142.45 982.65 142.03C982.542 142.002 982.428 142.002 982.32 142.03C982.65 140.14 982.53 138.65 980.59 137.87C983.48 131.27 983.85 134.98 985.95 132.51C982.24 130.44 987.6 124.67 988.43 120.96C990.08 117.24 994.62 101.96 995.43 109.82C998.73 105.28 999.14 104.05 997.08 102.82C997.08 95.82 1003.27 97.0399 999.56 93.7399C1000.38 91.6799 1001.62 87.5599 1003.27 82.6099C1004.09 80.9599 1004.5 75.1799 1006.15 77.2499C1006.57 77.2499 1006.57 76.4199 1006.98 76.4199C1008.63 78.8999 1016.88 76.0099 1018.98 79.3099C1025.17 77.2499 1028.88 84.3099 1031.36 80.5499C1037.13 80.9599 1042.9 85.08 1045.36 86.32C1048.66 86.32 1051.96 90.44 1049.48 92.09C1053.2 91.27 1052.78 87.5599 1056.08 90.8599C1061.86 92.5099 1056.49 97.46 1052.78 97.46C1050.31 99.93 1054.43 100.34 1056.91 97.8699C1058.97 98.2799 1059.79 99.52 1060.62 100.34C1060.21 101.17 1061.03 101.17 1061.03 100.76C1061.87 102.142 1063.19 103.167 1064.74 103.64C1072.99 104.47 1058.56 113.96 1053.61 120.14C1027.61 141.62 998.33 157.71 967.8 169.67V169.71ZM997.5 288.09H997.91C999.98 288.05 999.98 290.11 997.5 288.05V288.09ZM1005.75 288.09C1006.55 287.83 1007.39 287.689 1008.23 287.67C1009.05 287.63 1002.45 289.7 1005.75 288.05V288.09ZM1009.46 289.74C1005.34 285.61 1015.24 291.43 1014 287.67C1017.3 292.62 1012.76 290.56 1009.46 289.7V289.74Z" fill="black"/>
</svg>
